<?xml version="1.0" encoding="utf-8"?>
<!-- Generator: Adobe Illustrator 16.0.0, SVG Export Plug-In . SVG Version: 6.00 Build 0)  -->
<!DOCTYPE svg PUBLIC "-//W3C//DTD SVG 1.1//EN" "http://www.w3.org/Graphics/SVG/1.1/DTD/svg11.dtd">
<svg version="1.1" id="Layer_1" xmlns="http://www.w3.org/2000/svg" xmlns:xlink="http://www.w3.org/1999/xlink" x="0px" y="0px"
	 width="196px" height="196px" viewBox="0 0 196 196" enable-background="new 0 0 196 196" xml:space="preserve">
<path fill="#006749" d="M193,3v190H3V3H193 M196,0H0v196h196V0L196,0z"/>
<g>
	<path fill="#006749" d="M115.68,98.943l-5.066-46.731c0,0-0.525-2.376-1.369-3.219c-0.842-0.843-3.523-0.92-3.523-0.92h-5.932
		c0,0-2.682,0.077-3.524,0.92s-1.368,3.219-1.368,3.219l-5.067,46.731H115.68z"/>
	<path fill="#006749" d="M70.83,98.943h16.088L67.713,69.513c0.13-0.563,0.206-1.147,0.206-1.75c0-4.273-3.464-7.738-7.737-7.738
		c-4.227,0-7.655,3.39-7.73,7.598h-0.008v56.347h3.269V74.072c1.057,0.749,2.305,1.245,3.662,1.386L70.83,98.943z"/>
	<path fill="#006749" d="M139.014,67.801v-5.401c0-2.2-1.784-3.983-3.984-3.983h-1.034v-5.573c0-0.804-0.613-1.456-1.417-1.456
		c-0.805,0-1.418,0.652-1.418,1.456v5.573h-1.033c-2.201,0-3.984,1.783-3.984,3.983v5.401c-3.152,0-5.707,2.555-5.707,5.707v25.436
		h24.285V73.508C144.721,70.355,142.166,67.801,139.014,67.801z M137.481,94.215h-9.704c-0.847,0-1.532-0.686-1.532-1.532
		c0-0.846,0.686-1.532,1.532-1.532h9.704c0.847,0,1.532,0.687,1.532,1.532C139.014,93.529,138.328,94.215,137.481,94.215z
		 M137.481,85.328h-9.704c-0.847,0-1.532-0.686-1.532-1.532c0-0.846,0.686-1.532,1.532-1.532h9.704c0.847,0,1.532,0.687,1.532,1.532
		C139.014,84.643,138.328,85.328,137.481,85.328z M137.481,76.697h-9.704c-0.847,0-1.532-0.687-1.532-1.532
		c0-0.847,0.686-1.532,1.532-1.532h9.704c0.847,0,1.532,0.686,1.532,1.532C139.014,76.011,138.328,76.697,137.481,76.697z"/>
	<g>
		<path fill="#006749" d="M102.752,45.92c-0.847,0-1.533-0.687-1.533-1.532c0-3.154,2.566-5.721,5.721-5.721h25.025
			c0.847,0,1.532,0.687,1.532,1.532c0,0.847-0.686,1.532-1.532,1.532h-25.025c-1.465,0-2.656,1.191-2.656,2.656
			C104.283,45.233,103.598,45.92,102.752,45.92z"/>
		<path fill="#006749" d="M125.428,46.635h-9.092c-0.846,0-1.531-0.687-1.531-1.532c0-0.847,0.686-1.532,1.531-1.532h9.092
			c0.846,0,1.531,0.686,1.531,1.532C126.959,45.948,126.273,46.635,125.428,46.635z"/>
	</g>
	<path fill="#006749" d="M119.605,138.667c-2.758,0-4.557-1.109-6.144-2.088c-1.472-0.908-2.743-1.691-4.787-1.691
		c-1.905,0-2.867,0.68-4.086,1.539c-1.415,0.998-3.175,2.24-6.435,2.24c-3.279,0-5.251-1.201-6.99-2.262
		c-1.393-0.848-2.492-1.518-4.143-1.518c-1.611,0-2.46,0.623-3.635,1.485c-1.391,1.022-3.123,2.294-6.274,2.294
		c-3.007,0-4.959-1.138-6.682-2.143c-1.508-0.878-2.81-1.637-4.759-1.637c-0.846,0-1.532-0.686-1.532-1.533
		c0-0.846,0.687-1.531,1.532-1.531c2.777,0,4.649,1.092,6.302,2.055c1.588,0.925,2.959,1.725,5.139,1.725
		c2.147,0,3.22-0.787,4.462-1.699c1.327-0.976,2.832-2.08,5.447-2.08c2.51,0,4.224,1.044,5.736,1.965
		c1.531,0.934,2.978,1.814,5.396,1.814c2.288,0,3.391-0.777,4.668-1.68c1.395-0.984,2.976-2.1,5.853-2.1
		c2.913,0,4.763,1.141,6.396,2.148c1.42,0.875,2.646,1.631,4.535,1.631c1.99,0,3.338-0.812,4.898-1.752
		c1.578-0.95,3.367-2.027,5.826-2.027c0.847,0,1.533,0.686,1.533,1.531c0,0.848-0.687,1.533-1.533,1.533
		c-1.607,0-2.83,0.736-4.245,1.588C124.381,137.503,122.448,138.667,119.605,138.667z"/>
	<path fill="#006749" d="M147.584,125.989c-0.576-0.614-1.543-0.646-2.162-0.074c-0.016,0.016-1.68,1.527-4.059,1.527
		c-0.9,0-2.084-0.545-3.359-1.191v-12.395h6.717c1.607,0,2.911-1.304,2.911-2.911v-5.822c0-1.608-1.304-2.912-2.911-2.912H63.476
		c-1.607,0-2.911,1.304-2.911,2.912v5.822c0,1.607,1.304,2.911,2.911,2.911h6.394v10.738c-1.17-0.53-2.517-0.933-4.197-0.933
		c-2.954,0-4.86,1.199-6.542,2.257c-1.353,0.851-2.42,1.523-3.877,1.523c-3.131,0-4.509-1.36-4.594-1.448
		c-0.567-0.614-1.524-0.662-2.148-0.103c-0.631,0.564-0.685,1.533-0.12,2.163c0.225,0.252,2.325,2.452,6.862,2.452
		c2.341,0,4.024-1.06,5.509-1.993c1.461-0.919,2.84-1.787,4.91-1.787c1.704,0,2.914,0.58,4.197,1.313
		c0.186,0.105,0.371,0.215,0.562,0.325c1.723,1.004,3.675,2.143,6.682,2.143c3.151,0,4.884-1.272,6.274-2.295
		c1.175-0.862,2.023-1.485,3.635-1.485c0.207,0,0.404,0.011,0.596,0.03c0.137,0.015,0.268,0.039,0.397,0.063
		c0.051,0.01,0.105,0.015,0.155,0.025c0.143,0.029,0.279,0.069,0.415,0.109c0.035,0.011,0.072,0.018,0.106,0.029
		c0.113,0.036,0.222,0.079,0.331,0.122c0.058,0.021,0.116,0.04,0.173,0.063c0.653,0.273,1.274,0.652,1.969,1.074
		c1.739,1.061,3.711,2.263,6.99,2.263c3.26,0,5.02-1.242,6.435-2.24c1.219-0.86,2.181-1.54,4.086-1.54
		c2.044,0,3.315,0.784,4.787,1.692c1.339,0.826,2.835,1.736,4.925,2.003v0.009c0.047,0.006,0.098,0.008,0.145,0.014
		c0.063,0.007,0.127,0.012,0.189,0.018c0.285,0.026,0.577,0.045,0.885,0.045c2.843,0,4.775-1.164,6.479-2.191
		c1.415-0.853,2.638-1.589,4.245-1.589c1.888,0,3.811,0.987,5.67,1.941c0.283,0.146,0.563,0.288,0.841,0.428
		c0.089,0.044,0.178,0.088,0.266,0.131c0.284,0.141,0.567,0.275,0.849,0.401c0.017,0.008,0.033,0.016,0.049,0.023v-0.001
		c1.127,0.5,2.234,0.856,3.359,0.856c3.633,0,6.061-2.267,6.162-2.362C148.136,127.564,148.16,126.604,147.584,125.989z
		 M115.07,125.811c-1.633-1.007-3.482-2.148-6.396-2.148c-2.877,0-4.458,1.116-5.853,2.101c-1.277,0.901-2.38,1.68-4.668,1.68
		c-2.419,0-3.865-0.882-5.396-1.814c-1.026-0.626-2.154-1.301-3.553-1.674v-10.098h29.182v13.467
		C117.139,127.08,116.16,126.482,115.07,125.811z"/>
</g>
<g>
	<path fill="#006749" d="M25.147,159.776c0-0.802,0.12-1.476,0.36-2.02c0.179-0.401,0.423-0.761,0.733-1.08
		c0.31-0.318,0.649-0.555,1.018-0.709c0.491-0.207,1.056-0.311,1.697-0.311c1.16,0,2.088,0.359,2.785,1.079
		c0.696,0.72,1.044,1.721,1.044,3.003c0,1.271-0.346,2.266-1.037,2.983s-1.615,1.077-2.771,1.077c-1.171,0-2.102-0.357-2.793-1.072
		C25.493,162.014,25.147,161.029,25.147,159.776z M26.785,159.723c0,0.892,0.206,1.567,0.618,2.027s0.935,0.69,1.568,0.69
		s1.154-0.229,1.56-0.685c0.407-0.457,0.61-1.142,0.61-2.055c0-0.902-0.198-1.575-0.593-2.02c-0.396-0.444-0.921-0.666-1.577-0.666
		s-1.184,0.225-1.584,0.674S26.785,158.816,26.785,159.723z"/>
	<path fill="#006749" d="M34.036,163.665v-7.874h5.398v1.332h-3.808v1.864h3.287v1.332h-3.287v3.346H34.036z"/>
	<path fill="#006749" d="M40.755,163.665v-7.874h5.398v1.332h-3.808v1.864h3.287v1.332h-3.287v3.346H40.755z"/>
	<path fill="#006749" d="M47.061,161.103l1.547-0.15c0.093,0.52,0.282,0.901,0.566,1.145c0.285,0.243,0.669,0.365,1.152,0.365
		c0.512,0,0.898-0.108,1.157-0.325c0.26-0.217,0.39-0.47,0.39-0.76c0-0.187-0.055-0.345-0.164-0.476
		c-0.109-0.131-0.3-0.244-0.572-0.341c-0.186-0.064-0.61-0.179-1.273-0.344c-0.852-0.211-1.45-0.471-1.794-0.778
		c-0.483-0.434-0.725-0.962-0.725-1.585c0-0.401,0.114-0.776,0.341-1.125c0.227-0.35,0.555-0.615,0.982-0.798
		c0.428-0.183,0.945-0.273,1.55-0.273c0.988,0,1.732,0.216,2.231,0.649c0.5,0.434,0.762,1.012,0.787,1.735l-1.59,0.069
		c-0.068-0.404-0.214-0.695-0.438-0.873c-0.224-0.177-0.56-0.266-1.007-0.266c-0.462,0-0.824,0.095-1.085,0.284
		c-0.168,0.122-0.252,0.285-0.252,0.489c0,0.187,0.079,0.346,0.236,0.478c0.201,0.169,0.688,0.344,1.461,0.527
		c0.773,0.182,1.346,0.371,1.716,0.566c0.371,0.195,0.661,0.462,0.87,0.8c0.21,0.339,0.314,0.757,0.314,1.255
		c0,0.451-0.125,0.873-0.376,1.268c-0.25,0.394-0.605,0.687-1.063,0.878s-1.029,0.287-1.713,0.287c-0.996,0-1.76-0.23-2.293-0.69
		S47.165,161.983,47.061,161.103z"/>
	<path fill="#006749" d="M54.806,163.665v-7.874h1.59v3.099h3.115v-3.099h1.59v7.874h-1.59v-3.443h-3.115v3.443H54.806z"/>
	<path fill="#006749" d="M62.422,159.776c0-0.802,0.12-1.476,0.36-2.02c0.179-0.401,0.423-0.761,0.733-1.08
		c0.31-0.318,0.649-0.555,1.018-0.709c0.491-0.207,1.056-0.311,1.697-0.311c1.16,0,2.088,0.359,2.785,1.079
		c0.696,0.72,1.044,1.721,1.044,3.003c0,1.271-0.346,2.266-1.037,2.983s-1.615,1.077-2.771,1.077c-1.171,0-2.102-0.357-2.793-1.072
		C62.768,162.014,62.422,161.029,62.422,159.776z M64.061,159.723c0,0.892,0.206,1.567,0.618,2.027s0.935,0.69,1.568,0.69
		s1.154-0.229,1.56-0.685c0.407-0.457,0.61-1.142,0.61-2.055c0-0.902-0.198-1.575-0.593-2.02c-0.396-0.444-0.921-0.666-1.577-0.666
		s-1.184,0.225-1.584,0.674S64.061,158.816,64.061,159.723z"/>
	<path fill="#006749" d="M71.306,163.665v-7.874h3.346c0.841,0,1.453,0.07,1.834,0.212c0.381,0.142,0.687,0.394,0.916,0.755
		s0.344,0.775,0.344,1.241c0,0.59-0.174,1.078-0.521,1.463s-0.867,0.628-1.558,0.729c0.344,0.2,0.627,0.42,0.852,0.66
		c0.224,0.24,0.525,0.666,0.905,1.278l0.961,1.536h-1.901l-1.149-1.713c-0.408-0.613-0.688-0.999-0.838-1.158
		s-0.31-0.269-0.478-0.327c-0.168-0.06-0.435-0.089-0.8-0.089h-0.322v3.287H71.306z M72.896,159.121h1.176
		c0.763,0,1.239-0.032,1.429-0.097s0.338-0.176,0.446-0.333s0.161-0.354,0.161-0.591c0-0.265-0.071-0.479-0.212-0.642
		c-0.142-0.163-0.341-0.267-0.599-0.31c-0.129-0.018-0.516-0.026-1.16-0.026h-1.241V159.121z"/>
	<path fill="#006749" d="M79.245,163.665v-7.874h5.838v1.332h-4.249v1.745h3.953v1.327h-3.953v2.144h4.399v1.326H79.245z"/>
	<path fill="#006749" d="M89.235,161.103l1.547-0.15c0.093,0.52,0.282,0.901,0.566,1.145c0.285,0.243,0.669,0.365,1.152,0.365
		c0.512,0,0.898-0.108,1.157-0.325c0.26-0.217,0.39-0.47,0.39-0.76c0-0.187-0.055-0.345-0.164-0.476
		c-0.109-0.131-0.3-0.244-0.572-0.341c-0.186-0.064-0.61-0.179-1.273-0.344c-0.852-0.211-1.45-0.471-1.794-0.778
		c-0.483-0.434-0.725-0.962-0.725-1.585c0-0.401,0.114-0.776,0.341-1.125c0.227-0.35,0.555-0.615,0.982-0.798
		c0.428-0.183,0.945-0.273,1.55-0.273c0.988,0,1.732,0.216,2.231,0.649c0.5,0.434,0.762,1.012,0.787,1.735l-1.59,0.069
		c-0.068-0.404-0.214-0.695-0.438-0.873c-0.224-0.177-0.56-0.266-1.007-0.266c-0.462,0-0.824,0.095-1.085,0.284
		c-0.168,0.122-0.252,0.285-0.252,0.489c0,0.187,0.079,0.346,0.236,0.478c0.201,0.169,0.688,0.344,1.461,0.527
		c0.773,0.182,1.346,0.371,1.716,0.566c0.371,0.195,0.661,0.462,0.87,0.8c0.21,0.339,0.314,0.757,0.314,1.255
		c0,0.451-0.125,0.873-0.376,1.268c-0.25,0.394-0.605,0.687-1.063,0.878s-1.029,0.287-1.713,0.287c-0.996,0-1.76-0.23-2.293-0.69
		S89.339,161.983,89.235,161.103z"/>
	<path fill="#006749" d="M98.747,163.665v-6.542h-2.336v-1.332h6.257v1.332h-2.331v6.542H98.747z"/>
	<path fill="#006749" d="M103.699,163.665v-7.874h3.346c0.841,0,1.453,0.07,1.834,0.212c0.381,0.142,0.687,0.394,0.916,0.755
		s0.344,0.775,0.344,1.241c0,0.59-0.174,1.078-0.521,1.463s-0.867,0.628-1.558,0.729c0.344,0.2,0.627,0.42,0.852,0.66
		c0.224,0.24,0.525,0.666,0.905,1.278l0.961,1.536h-1.901l-1.149-1.713c-0.408-0.613-0.688-0.999-0.838-1.158
		s-0.31-0.269-0.478-0.327c-0.168-0.06-0.435-0.089-0.8-0.089h-0.322v3.287H103.699z M105.289,159.121h1.176
		c0.763,0,1.239-0.032,1.429-0.097s0.338-0.176,0.446-0.333s0.161-0.354,0.161-0.591c0-0.265-0.071-0.479-0.212-0.642
		c-0.142-0.163-0.341-0.267-0.599-0.31c-0.129-0.018-0.516-0.026-1.16-0.026h-1.241V159.121z"/>
	<path fill="#006749" d="M111.627,155.791h1.59v4.265c0,0.677,0.02,1.115,0.059,1.316c0.068,0.322,0.23,0.58,0.486,0.775
		c0.256,0.195,0.606,0.293,1.05,0.293c0.451,0,0.792-0.092,1.021-0.276s0.367-0.411,0.414-0.68s0.07-0.714,0.07-1.337v-4.356h1.59
		v4.136c0,0.945-0.043,1.613-0.129,2.004c-0.086,0.39-0.244,0.719-0.476,0.988c-0.23,0.268-0.54,0.482-0.926,0.642
		s-0.892,0.239-1.515,0.239c-0.752,0-1.322-0.087-1.71-0.261c-0.389-0.174-0.696-0.399-0.921-0.677s-0.374-0.568-0.446-0.873
		c-0.104-0.451-0.156-1.117-0.156-1.998V155.791z"/>
	<path fill="#006749" d="M124.62,160.771l1.542,0.488c-0.236,0.859-0.629,1.498-1.179,1.915c-0.55,0.417-1.247,0.626-2.092,0.626
		c-1.045,0-1.905-0.357-2.578-1.072c-0.673-0.714-1.01-1.69-1.01-2.93c0-1.311,0.338-2.328,1.015-3.054
		c0.677-0.725,1.566-1.087,2.669-1.087c0.963,0,1.746,0.284,2.347,0.854c0.358,0.337,0.626,0.82,0.806,1.45l-1.574,0.376
		c-0.093-0.408-0.288-0.73-0.583-0.967c-0.296-0.236-0.655-0.354-1.077-0.354c-0.583,0-1.057,0.21-1.421,0.628
		c-0.363,0.42-0.545,1.098-0.545,2.036c0,0.995,0.179,1.704,0.537,2.127s0.824,0.634,1.396,0.634c0.422,0,0.786-0.135,1.09-0.402
		C124.269,161.769,124.487,161.347,124.62,160.771z"/>
	<path fill="#006749" d="M129.298,163.665v-6.542h-2.336v-1.332h6.257v1.332h-2.331v6.542H129.298z"/>
	<path fill="#006749" d="M134.234,155.791h1.59v4.265c0,0.677,0.02,1.115,0.059,1.316c0.068,0.322,0.23,0.58,0.486,0.775
		c0.256,0.195,0.606,0.293,1.05,0.293c0.451,0,0.792-0.092,1.021-0.276s0.367-0.411,0.414-0.68s0.07-0.714,0.07-1.337v-4.356h1.59
		v4.136c0,0.945-0.043,1.613-0.129,2.004c-0.086,0.39-0.244,0.719-0.476,0.988c-0.23,0.268-0.54,0.482-0.926,0.642
		s-0.892,0.239-1.515,0.239c-0.752,0-1.322-0.087-1.71-0.261c-0.389-0.174-0.696-0.399-0.921-0.677s-0.374-0.568-0.446-0.873
		c-0.104-0.451-0.156-1.117-0.156-1.998V155.791z"/>
	<path fill="#006749" d="M142.194,163.665v-7.874h3.346c0.841,0,1.453,0.07,1.834,0.212c0.381,0.142,0.687,0.394,0.916,0.755
		s0.344,0.775,0.344,1.241c0,0.59-0.174,1.078-0.521,1.463s-0.867,0.628-1.558,0.729c0.344,0.2,0.627,0.42,0.852,0.66
		c0.224,0.24,0.525,0.666,0.905,1.278l0.961,1.536h-1.901l-1.149-1.713c-0.408-0.613-0.688-0.999-0.838-1.158
		s-0.31-0.269-0.478-0.327c-0.168-0.06-0.435-0.089-0.8-0.089h-0.322v3.287H142.194z M143.784,159.121h1.176
		c0.763,0,1.239-0.032,1.429-0.097s0.338-0.176,0.446-0.333s0.161-0.354,0.161-0.591c0-0.265-0.071-0.479-0.212-0.642
		c-0.142-0.163-0.341-0.267-0.599-0.31c-0.129-0.018-0.516-0.026-1.16-0.026h-1.241V159.121z"/>
	<path fill="#006749" d="M157.233,163.665h-1.729l-0.688-1.789h-3.147l-0.65,1.789h-1.687l3.067-7.874h1.681L157.233,163.665z
		 M154.306,160.55l-1.085-2.922l-1.063,2.922H154.306z"/>
	<path fill="#006749" d="M158.119,163.665v-7.81h1.59v6.483h3.953v1.326H158.119z"/>
	<path fill="#006749" d="M164.393,161.103l1.547-0.15c0.093,0.52,0.282,0.901,0.566,1.145c0.285,0.243,0.669,0.365,1.152,0.365
		c0.512,0,0.898-0.108,1.157-0.325c0.26-0.217,0.39-0.47,0.39-0.76c0-0.187-0.055-0.345-0.164-0.476
		c-0.109-0.131-0.3-0.244-0.572-0.341c-0.186-0.064-0.61-0.179-1.273-0.344c-0.852-0.211-1.45-0.471-1.794-0.778
		c-0.483-0.434-0.725-0.962-0.725-1.585c0-0.401,0.114-0.776,0.341-1.125c0.227-0.35,0.555-0.615,0.982-0.798
		c0.428-0.183,0.945-0.273,1.55-0.273c0.988,0,1.732,0.216,2.231,0.649c0.5,0.434,0.762,1.012,0.787,1.735l-1.59,0.069
		c-0.068-0.404-0.214-0.695-0.438-0.873c-0.224-0.177-0.56-0.266-1.007-0.266c-0.462,0-0.824,0.095-1.085,0.284
		c-0.168,0.122-0.252,0.285-0.252,0.489c0,0.187,0.079,0.346,0.236,0.478c0.201,0.169,0.688,0.344,1.461,0.527
		c0.773,0.182,1.346,0.371,1.716,0.566c0.371,0.195,0.661,0.462,0.87,0.8c0.21,0.339,0.314,0.757,0.314,1.255
		c0,0.451-0.125,0.873-0.376,1.268c-0.25,0.394-0.605,0.687-1.063,0.878s-1.029,0.287-1.713,0.287c-0.996,0-1.76-0.23-2.293-0.69
		S164.497,161.983,164.393,161.103z"/>
</g>
</svg>
