<?xml version="1.0" encoding="utf-8"?>
<!-- Generator: Adobe Illustrator 16.0.0, SVG Export Plug-In . SVG Version: 6.00 Build 0)  -->
<!DOCTYPE svg PUBLIC "-//W3C//DTD SVG 1.1//EN" "http://www.w3.org/Graphics/SVG/1.1/DTD/svg11.dtd">
<svg version="1.1" id="Layer_1" xmlns="http://www.w3.org/2000/svg" xmlns:xlink="http://www.w3.org/1999/xlink" x="0px" y="0px"
	 width="196px" height="196px" viewBox="0 0 196 196" enable-background="new 0 0 196 196" xml:space="preserve">
<path fill="#006749" d="M193,3v190H3V3H193 M196,0H0v196h196V0L196,0z"/>
<g>
	<polygon fill="#006749" points="54.842,138.667 48,138.667 82.421,38.667 84,38.667 	"/>
	<polygon fill="#006749" points="141.158,138.667 148,138.667 113.578,38.667 112,38.667 	"/>
	<path fill="#006749" d="M105.474,138.667h33.263l-29.158-100h-8.736l0.742,16.03h-7.168l0.742-16.03h-8.737l-29.157,100h33.262
		l1.443-31.146h12.063L105.474,138.667z M92.771,90.216l1.198-25.864h8.063l1.197,25.864H92.771z"/>
</g>
<g>
	<path fill="#006749" d="M78.943,163.665v-7.874h3.346c0.842,0,1.453,0.07,1.835,0.212c0.381,0.142,0.687,0.394,0.915,0.755
		c0.229,0.361,0.344,0.775,0.344,1.241c0,0.59-0.174,1.078-0.521,1.463s-0.866,0.628-1.558,0.729c0.344,0.2,0.627,0.42,0.852,0.66
		c0.224,0.24,0.525,0.666,0.904,1.278l0.962,1.536h-1.901l-1.149-1.713c-0.408-0.613-0.688-0.999-0.838-1.158
		s-0.31-0.269-0.478-0.327c-0.169-0.06-0.436-0.089-0.801-0.089h-0.322v3.287H78.943z M80.533,159.121h1.176
		c0.764,0,1.239-0.032,1.43-0.097c0.189-0.064,0.338-0.176,0.445-0.333s0.161-0.354,0.161-0.591c0-0.265-0.071-0.479-0.212-0.642
		c-0.142-0.163-0.342-0.267-0.6-0.31c-0.129-0.018-0.516-0.026-1.16-0.026h-1.24V159.121z"/>
	<path fill="#006749" d="M86.56,159.776c0-0.802,0.12-1.476,0.36-2.02c0.179-0.401,0.423-0.761,0.732-1.08
		c0.311-0.318,0.649-0.555,1.018-0.709c0.491-0.207,1.057-0.311,1.697-0.311c1.16,0,2.089,0.359,2.785,1.079
		c0.697,0.72,1.045,1.721,1.045,3.003c0,1.271-0.346,2.266-1.037,2.983c-0.69,0.718-1.614,1.077-2.771,1.077
		c-1.17,0-2.102-0.357-2.793-1.072C86.905,162.014,86.56,161.029,86.56,159.776z M88.197,159.723c0,0.892,0.207,1.567,0.618,2.027
		s0.935,0.69,1.568,0.69s1.153-0.229,1.56-0.685c0.407-0.457,0.61-1.142,0.61-2.055c0-0.902-0.198-1.575-0.593-2.02
		c-0.396-0.444-0.922-0.666-1.577-0.666s-1.184,0.225-1.585,0.674C88.398,158.139,88.197,158.816,88.197,159.723z"/>
	<path fill="#006749" d="M102.539,163.665h-1.73l-0.688-1.789h-3.146l-0.65,1.789h-1.687l3.067-7.874h1.681L102.539,163.665z
		 M99.611,160.55l-1.085-2.922l-1.063,2.922H99.611z"/>
	<path fill="#006749" d="M103.377,155.791h2.905c0.655,0,1.155,0.05,1.499,0.15c0.461,0.136,0.857,0.378,1.187,0.726
		c0.329,0.347,0.58,0.772,0.752,1.275s0.258,1.123,0.258,1.861c0,0.647-0.081,1.206-0.241,1.676
		c-0.197,0.572-0.479,1.036-0.844,1.391c-0.275,0.269-0.648,0.479-1.117,0.629c-0.352,0.11-0.82,0.166-1.407,0.166h-2.991V155.791z
		 M104.967,157.123v5.216h1.187c0.444,0,0.765-0.025,0.962-0.076c0.258-0.064,0.471-0.173,0.641-0.327
		c0.171-0.154,0.31-0.407,0.417-0.76s0.161-0.834,0.161-1.442s-0.054-1.076-0.161-1.402c-0.107-0.325-0.258-0.58-0.451-0.762
		c-0.193-0.184-0.438-0.307-0.735-0.371c-0.223-0.05-0.658-0.075-1.306-0.075H104.967z"/>
	<path fill="#006749" d="M110.923,161.103l1.547-0.15c0.093,0.52,0.282,0.901,0.566,1.145c0.285,0.243,0.669,0.365,1.152,0.365
		c0.513,0,0.897-0.108,1.157-0.325s0.39-0.47,0.39-0.76c0-0.187-0.055-0.345-0.164-0.476c-0.108-0.131-0.3-0.244-0.571-0.341
		c-0.187-0.064-0.611-0.179-1.273-0.344c-0.852-0.211-1.45-0.471-1.794-0.778c-0.483-0.434-0.726-0.962-0.726-1.585
		c0-0.401,0.114-0.776,0.342-1.125c0.227-0.35,0.555-0.615,0.982-0.798s0.945-0.273,1.55-0.273c0.988,0,1.732,0.216,2.231,0.649
		c0.5,0.434,0.762,1.012,0.787,1.735l-1.59,0.069c-0.068-0.404-0.214-0.695-0.438-0.873c-0.225-0.177-0.56-0.266-1.008-0.266
		c-0.461,0-0.823,0.095-1.084,0.284c-0.169,0.122-0.253,0.285-0.253,0.489c0,0.187,0.079,0.346,0.236,0.478
		c0.2,0.169,0.688,0.344,1.461,0.527c0.773,0.182,1.346,0.371,1.716,0.566c0.371,0.195,0.661,0.462,0.87,0.8
		c0.21,0.339,0.314,0.757,0.314,1.255c0,0.451-0.126,0.873-0.376,1.268c-0.25,0.394-0.605,0.687-1.063,0.878
		s-1.029,0.287-1.714,0.287c-0.995,0-1.76-0.23-2.293-0.69S111.027,161.983,110.923,161.103z"/>
</g>
</svg>
