<?xml version="1.0" encoding="utf-8"?>
<!-- Generator: Adobe Illustrator 16.0.0, SVG Export Plug-In . SVG Version: 6.00 Build 0)  -->
<!DOCTYPE svg PUBLIC "-//W3C//DTD SVG 1.1//EN" "http://www.w3.org/Graphics/SVG/1.1/DTD/svg11.dtd">
<svg version="1.1" id="Layer_1" xmlns="http://www.w3.org/2000/svg" xmlns:xlink="http://www.w3.org/1999/xlink" x="0px" y="0px"
	 width="196px" height="196px" viewBox="0 0 196 196" enable-background="new 0 0 196 196" xml:space="preserve">
<path fill="#006749" d="M193,3v190H3V3H193 M196,0H0v196h196V0L196,0z"/>
<g>
	<polygon fill="#006749" points="112.563,60.115 117.772,65.152 117.772,78.872 122.614,83.588 127.091,78.872 127.091,93.136 
		131.095,97.141 127.091,101.145 127.091,115.586 131.095,119.592 127.091,123.596 127.091,137.494 122.896,133.299 73.104,133.299 
		68.909,137.494 68.909,123.596 64.905,119.592 68.909,115.586 68.909,101.145 64.905,97.141 68.909,93.136 68.909,78.872 
		73.386,83.588 78.228,78.872 78.228,65.152 83.437,60.115 	"/>
	<polygon fill="#006749" points="62.233,95.82 48,95.82 48,78.652 66.195,78.652 66.195,91.711 	"/>
	<polygon fill="#006749" points="62.233,121.498 48,121.498 48,138.667 66.195,138.667 66.195,125.607 	"/>
	<polygon fill="#006749" points="62.526,118.124 48,118.124 48,98.805 62.233,98.805 66.195,103.01 66.195,114.162 	"/>
	<polygon fill="#006749" points="133.767,95.82 148,95.82 148,78.652 129.805,78.652 129.805,91.711 	"/>
	<polygon fill="#006749" points="133.767,121.498 148,121.498 148,138.667 129.805,138.667 129.805,125.607 	"/>
	<polygon fill="#006749" points="133.474,118.124 148,118.124 148,98.805 133.767,98.805 129.805,103.01 129.805,114.162 	"/>
	<polygon fill="#006749" points="107.739,49.251 102.823,54.166 102.823,58.936 93.177,58.936 93.177,54.166 88.261,49.251 	"/>
	<path fill="#006749" d="M135.747,43.51h-32.24c-0.293-2.723-2.597-4.843-5.396-4.843c-2.801,0-5.104,2.12-5.396,4.843H60.473
		c-1.297,0-2.349,1.051-2.349,2.348s1.052,2.348,2.349,2.348h75.274c1.297,0,2.348-1.051,2.348-2.348S137.044,43.51,135.747,43.51z"
		/>
</g>
<g>
	<path fill="#006749" d="M12.82,163.333l-1.88-7.874h1.627l1.187,5.409l1.439-5.409h1.891l1.38,5.5l1.208-5.5h1.601l-1.912,7.874
		h-1.687l-1.568-5.887l-1.563,5.887H12.82z"/>
	<path fill="#006749" d="M28.579,163.333h-1.729l-0.688-1.789h-3.147l-0.65,1.789h-1.687l3.067-7.874h1.681L28.579,163.333z
		 M25.651,160.218l-1.085-2.922l-1.063,2.922H25.651z"/>
	<path fill="#006749" d="M30.378,163.333v-6.542h-2.336v-1.332h6.257v1.332h-2.331v6.542H30.378z"/>
	<path fill="#006749" d="M35.325,163.333v-7.874h5.838v1.332h-4.249v1.745h3.953v1.327h-3.953v2.144h4.399v1.326H35.325z"/>
	<path fill="#006749" d="M42.667,163.333v-7.874h3.346c0.841,0,1.453,0.07,1.834,0.212c0.381,0.142,0.687,0.394,0.916,0.755
		s0.344,0.775,0.344,1.241c0,0.59-0.174,1.078-0.521,1.463s-0.867,0.628-1.558,0.729c0.344,0.2,0.627,0.42,0.852,0.66
		c0.224,0.24,0.525,0.666,0.905,1.278l0.961,1.536h-1.901l-1.149-1.713c-0.408-0.613-0.688-0.999-0.838-1.158
		s-0.31-0.269-0.478-0.327c-0.168-0.06-0.435-0.089-0.8-0.089h-0.322v3.287H42.667z M44.257,158.789h1.176
		c0.763,0,1.239-0.032,1.429-0.097s0.338-0.176,0.446-0.333s0.161-0.354,0.161-0.591c0-0.265-0.071-0.479-0.212-0.642
		c-0.142-0.163-0.341-0.267-0.599-0.31c-0.129-0.018-0.516-0.026-1.16-0.026h-1.241V158.789z"/>
	<path fill="#006749" d="M58.7,160.438l1.542,0.488c-0.236,0.859-0.629,1.498-1.179,1.915c-0.55,0.417-1.247,0.626-2.092,0.626
		c-1.045,0-1.905-0.357-2.578-1.072c-0.673-0.714-1.01-1.69-1.01-2.93c0-1.311,0.338-2.328,1.015-3.054
		c0.677-0.725,1.566-1.087,2.669-1.087c0.963,0,1.746,0.284,2.347,0.854c0.358,0.337,0.626,0.82,0.806,1.45l-1.574,0.376
		c-0.093-0.408-0.288-0.73-0.583-0.967c-0.296-0.236-0.655-0.354-1.077-0.354c-0.583,0-1.057,0.21-1.421,0.628
		c-0.363,0.42-0.545,1.098-0.545,2.036c0,0.995,0.179,1.704,0.537,2.127s0.824,0.634,1.396,0.634c0.422,0,0.786-0.135,1.09-0.402
		C58.349,161.437,58.567,161.015,58.7,160.438z"/>
	<path fill="#006749" d="M61.283,159.444c0-0.802,0.12-1.476,0.36-2.02c0.179-0.401,0.423-0.761,0.733-1.08
		c0.31-0.318,0.649-0.555,1.018-0.709c0.491-0.207,1.056-0.311,1.697-0.311c1.16,0,2.088,0.359,2.785,1.079
		c0.696,0.72,1.044,1.721,1.044,3.003c0,1.271-0.346,2.266-1.037,2.983s-1.615,1.077-2.771,1.077c-1.171,0-2.102-0.357-2.793-1.072
		C61.629,161.682,61.283,160.697,61.283,159.444z M62.921,159.391c0,0.892,0.206,1.567,0.618,2.027s0.935,0.69,1.568,0.69
		s1.154-0.229,1.56-0.685c0.407-0.457,0.61-1.142,0.61-2.055c0-0.902-0.198-1.575-0.593-2.02c-0.396-0.444-0.921-0.666-1.577-0.666
		s-1.184,0.225-1.584,0.674S62.921,158.484,62.921,159.391z"/>
	<path fill="#006749" d="M70.178,163.333v-7.874h1.547l3.223,5.259v-5.259h1.477v7.874h-1.595l-3.174-5.135v5.135H70.178z"/>
	<path fill="#006749" d="M80.114,163.333l-2.814-7.874h1.724l1.993,5.827l1.928-5.827h1.687l-2.82,7.874H80.114z"/>
	<path fill="#006749" d="M85.442,163.333v-7.874h5.838v1.332h-4.249v1.745h3.953v1.327h-3.953v2.144h4.399v1.326H85.442z"/>
	<path fill="#006749" d="M94.847,163.333v-3.314l-2.884-4.56h1.864l1.853,3.115l1.815-3.115h1.832l-2.895,4.571v3.303H94.847z"/>
	<path fill="#006749" d="M106.207,163.333h-1.729l-0.688-1.789h-3.147l-0.65,1.789h-1.687l3.067-7.874h1.681L106.207,163.333z
		 M103.28,160.218l-1.085-2.922l-1.063,2.922H103.28z"/>
	<path fill="#006749" d="M107.066,163.333v-7.874h1.547l3.223,5.259v-5.259h1.477v7.874h-1.595l-3.174-5.135v5.135H107.066z"/>
	<path fill="#006749" d="M120.032,160.438l1.542,0.488c-0.236,0.859-0.629,1.498-1.179,1.915c-0.55,0.417-1.247,0.626-2.092,0.626
		c-1.045,0-1.905-0.357-2.578-1.072c-0.673-0.714-1.01-1.69-1.01-2.93c0-1.311,0.338-2.328,1.015-3.054
		c0.677-0.725,1.566-1.087,2.669-1.087c0.963,0,1.746,0.284,2.347,0.854c0.358,0.337,0.626,0.82,0.806,1.45l-1.574,0.376
		c-0.093-0.408-0.288-0.73-0.583-0.967c-0.296-0.236-0.655-0.354-1.077-0.354c-0.583,0-1.057,0.21-1.421,0.628
		c-0.363,0.42-0.545,1.098-0.545,2.036c0,0.995,0.179,1.704,0.537,2.127s0.824,0.634,1.396,0.634c0.422,0,0.786-0.135,1.09-0.402
		C119.681,161.437,119.9,161.015,120.032,160.438z"/>
	<path fill="#006749" d="M122.938,163.333v-7.874h5.838v1.332h-4.249v1.745h3.953v1.327h-3.953v2.144h4.399v1.326H122.938z"/>
	<path fill="#006749" d="M132.928,160.771l1.547-0.15c0.093,0.52,0.282,0.901,0.566,1.145c0.285,0.243,0.669,0.365,1.152,0.365
		c0.512,0,0.898-0.108,1.157-0.325c0.26-0.217,0.39-0.47,0.39-0.76c0-0.187-0.055-0.345-0.164-0.476
		c-0.109-0.131-0.3-0.244-0.572-0.341c-0.186-0.064-0.61-0.179-1.273-0.344c-0.852-0.211-1.45-0.471-1.794-0.778
		c-0.483-0.434-0.725-0.962-0.725-1.585c0-0.401,0.114-0.776,0.341-1.125c0.227-0.35,0.555-0.615,0.982-0.798
		c0.428-0.183,0.945-0.273,1.55-0.273c0.988,0,1.732,0.216,2.231,0.649c0.5,0.434,0.762,1.012,0.787,1.735l-1.59,0.069
		c-0.068-0.404-0.214-0.695-0.438-0.873c-0.224-0.177-0.56-0.266-1.007-0.266c-0.462,0-0.824,0.095-1.085,0.284
		c-0.168,0.122-0.252,0.285-0.252,0.489c0,0.187,0.079,0.346,0.236,0.478c0.201,0.169,0.688,0.344,1.461,0.527
		c0.773,0.182,1.346,0.371,1.716,0.566c0.371,0.195,0.661,0.462,0.87,0.8c0.21,0.339,0.314,0.757,0.314,1.255
		c0,0.451-0.125,0.873-0.376,1.268c-0.25,0.394-0.605,0.687-1.063,0.878s-1.029,0.287-1.713,0.287c-0.996,0-1.76-0.23-2.293-0.69
		S133.032,161.651,132.928,160.771z"/>
	<path fill="#006749" d="M142.736,163.333v-3.314l-2.884-4.56h1.864l1.853,3.115l1.815-3.115h1.832l-2.895,4.571v3.303H142.736z"/>
	<path fill="#006749" d="M147.602,160.771l1.547-0.15c0.093,0.52,0.282,0.901,0.566,1.145c0.285,0.243,0.669,0.365,1.152,0.365
		c0.512,0,0.898-0.108,1.157-0.325c0.26-0.217,0.39-0.47,0.39-0.76c0-0.187-0.055-0.345-0.164-0.476
		c-0.109-0.131-0.3-0.244-0.572-0.341c-0.186-0.064-0.61-0.179-1.273-0.344c-0.852-0.211-1.45-0.471-1.794-0.778
		c-0.483-0.434-0.725-0.962-0.725-1.585c0-0.401,0.114-0.776,0.341-1.125c0.227-0.35,0.555-0.615,0.982-0.798
		c0.428-0.183,0.945-0.273,1.55-0.273c0.988,0,1.732,0.216,2.231,0.649c0.5,0.434,0.762,1.012,0.787,1.735l-1.59,0.069
		c-0.068-0.404-0.214-0.695-0.438-0.873c-0.224-0.177-0.56-0.266-1.007-0.266c-0.462,0-0.824,0.095-1.085,0.284
		c-0.168,0.122-0.252,0.285-0.252,0.489c0,0.187,0.079,0.346,0.236,0.478c0.201,0.169,0.688,0.344,1.461,0.527
		c0.773,0.182,1.346,0.371,1.716,0.566c0.371,0.195,0.661,0.462,0.87,0.8c0.21,0.339,0.314,0.757,0.314,1.255
		c0,0.451-0.125,0.873-0.376,1.268c-0.25,0.394-0.605,0.687-1.063,0.878s-1.029,0.287-1.713,0.287c-0.996,0-1.76-0.23-2.293-0.69
		S147.706,161.651,147.602,160.771z"/>
	<path fill="#006749" d="M157.114,163.333v-6.542h-2.336v-1.332h6.257v1.332h-2.331v6.542H157.114z"/>
	<path fill="#006749" d="M162.061,163.333v-7.874h5.838v1.332h-4.249v1.745h3.953v1.327h-3.953v2.144h4.399v1.326H162.061z"/>
	<path fill="#006749" d="M169.376,163.333v-7.874h2.379l1.429,5.371l1.413-5.371h2.385v7.874h-1.477v-6.198l-1.563,6.198h-1.531
		l-1.558-6.198v6.198H169.376z"/>
	<path fill="#006749" d="M178.158,160.771l1.547-0.15c0.093,0.52,0.282,0.901,0.566,1.145c0.285,0.243,0.669,0.365,1.152,0.365
		c0.512,0,0.898-0.108,1.157-0.325c0.26-0.217,0.39-0.47,0.39-0.76c0-0.187-0.055-0.345-0.164-0.476
		c-0.109-0.131-0.3-0.244-0.572-0.341c-0.186-0.064-0.61-0.179-1.273-0.344c-0.852-0.211-1.45-0.471-1.794-0.778
		c-0.483-0.434-0.725-0.962-0.725-1.585c0-0.401,0.114-0.776,0.341-1.125c0.227-0.35,0.555-0.615,0.982-0.798
		c0.428-0.183,0.945-0.273,1.55-0.273c0.988,0,1.732,0.216,2.231,0.649c0.5,0.434,0.762,1.012,0.787,1.735l-1.59,0.069
		c-0.068-0.404-0.214-0.695-0.438-0.873c-0.224-0.177-0.56-0.266-1.007-0.266c-0.462,0-0.824,0.095-1.085,0.284
		c-0.168,0.122-0.252,0.285-0.252,0.489c0,0.187,0.079,0.346,0.236,0.478c0.201,0.169,0.688,0.344,1.461,0.527
		c0.773,0.182,1.346,0.371,1.716,0.566c0.371,0.195,0.661,0.462,0.87,0.8c0.21,0.339,0.314,0.757,0.314,1.255
		c0,0.451-0.125,0.873-0.376,1.268c-0.25,0.394-0.605,0.687-1.063,0.878s-1.029,0.287-1.713,0.287c-0.996,0-1.76-0.23-2.293-0.69
		S178.262,161.651,178.158,160.771z"/>
</g>
</svg>
