<?xml version="1.0" encoding="utf-8"?>
<!-- Generator: Adobe Illustrator 16.0.0, SVG Export Plug-In . SVG Version: 6.00 Build 0)  -->
<!DOCTYPE svg PUBLIC "-//W3C//DTD SVG 1.1//EN" "http://www.w3.org/Graphics/SVG/1.1/DTD/svg11.dtd">
<svg version="1.1" id="Layer_1" xmlns="http://www.w3.org/2000/svg" xmlns:xlink="http://www.w3.org/1999/xlink" x="0px" y="0px"
	 width="24px" height="24px" viewBox="0 0 24 24" enable-background="new 0 0 24 24" xml:space="preserve">
<g>
	<g>
		<path fill="#FFFFFF" d="M22.518,10.133c-0.207-0.543-0.63-1.025-1.146-1.375C19.883,7.811,17.61,7.743,16.076,8.6
			c-0.839,0.427-1.391,1.271-1.56,2.143c-0.313,1.43-0.231,3.13,0.872,4.201c1.281,1.125,3.15,1.375,4.812,0.912
			c0.079-0.015,0.331-0.079,0.503-0.172l0.051-0.019c0.513-0.214,1.006-0.565,1.374-1.036
			C22.977,13.387,23.033,11.528,22.518,10.133 M19.811,13.344c-0.056,0.271-0.24,0.552-0.527,0.651
			c-0.459,0.204-1.078,0.146-1.502-0.088c-0.354-0.249-0.399-0.667-0.445-1.06c-0.036-0.777-0.092-1.601,0.125-2.31
			c0.173-0.439,0.642-0.552,1.068-0.587c0.446,0,0.881,0.068,1.156,0.429c0.174,0.259,0.162,0.598,0.197,0.902
			C19.869,11.924,19.928,12.688,19.811,13.344 M6.226,14.042c-0.378-0.023-0.803,0.011-1.167-0.034l0.01-3.956L5.09,10.02
			l1.136-0.012c0.012-0.642,0.024-1.33-0.013-1.916l-4.32-0.01l-0.712,0.01c-0.011,0.6-0.011,1.295,0,1.904
			c0.39,0.012,0.755,0,1.137,0.037v3.828L2.305,14.02L1.17,14.042c-0.024,0.62-0.024,1.241,0,1.86h5.056V14.042L6.226,14.042z
			 M18.952,16.746c-0.481,0.688-1.091,1.352-1.753,1.869c-0.023,0.035-0.093,0.021-0.113-0.01c-0.29-0.181-0.6-0.328-0.875-0.508
			c0.368-0.438,0.723-0.879,0.998-1.363h-0.354c-0.286,0.418-0.585,0.857-0.964,1.228c-0.502-0.202-0.964-0.382-1.479-0.519
			L14.354,17.4c0.082-0.229,0.232-0.441,0.275-0.668H14.32l-0.311,0.609c-0.676-0.146-1.422-0.227-2.107-0.271
			c-0.034-0.101,0.01-0.247-0.034-0.339h-0.3c-0.023,0.135,0.035,0.239-0.034,0.351c-0.71,0.032-1.399,0.112-2.063,0.251
			l-0.31-0.602c-0.114,0-0.241-0.02-0.321,0.014l0.286,0.664l-0.034,0.033c-0.514,0.149-1.02,0.325-1.516,0.529L7.532,17.95
			C7.211,17.6,6.9,17.219,6.647,16.837c-0.056-0.193-0.284-0.081-0.41-0.103c0.272,0.495,0.64,0.934,1.008,1.386
			c-0.31,0.182-0.62,0.384-0.942,0.53c-0.699-0.533-1.311-1.178-1.809-1.904c-0.138-0.021-0.229-0.012-0.369,0
			c0.828,1.285,2.112,2.411,3.451,3.074c0,0,0-0.01,0.015-0.01c0.011,0,0.03,0.021,0.011,0.035c0.904,0.438,1.869,0.754,2.889,0.889
			c3.52,0.462,6.879-1.037,8.828-3.988C19.197,16.734,19.072,16.732,18.952,16.746 M14.172,17.76l0.034-0.023
			c0.492,0.114,0.964,0.271,1.399,0.484c-0.368,0.416-0.838,0.778-1.271,1.082c-0.266,0.156-0.531,0.328-0.807,0.461l-0.492-0.214
			l0.034-0.076C13.482,18.922,13.852,18.355,14.172,17.76 M11.912,17.422c0.654,0.012,1.307,0.08,1.913,0.225l0.013,0.034
			c-0.32,0.608-0.721,1.195-1.156,1.747c-0.197,0.022-0.38-0.055-0.573-0.066l-0.196-0.025
			C11.889,18.674,11.879,18.086,11.912,17.422 M9.701,17.625c0.596-0.113,1.215-0.203,1.854-0.203l0.014,1.905
			c-0.24,0.056-0.503,0.056-0.734,0.112c-0.471-0.552-0.859-1.15-1.191-1.771L9.701,17.625z M7.852,18.231
			c0.451-0.214,0.92-0.372,1.402-0.495l0.045,0.012c0.331,0.621,0.744,1.205,1.157,1.791c-0.159,0.092-0.354,0.146-0.515,0.238
			c-0.775-0.385-1.482-0.896-2.09-1.511V18.231L7.852,18.231z M9.332,20.16c-0.963-0.248-1.855-0.678-2.682-1.262v-0.034
			c0.275-0.169,0.551-0.351,0.847-0.475c0.655,0.644,1.33,1.128,2.063,1.589C9.506,20.047,9.413,20.113,9.332,20.16 M13.586,20.305
			c-1.215,0.26-2.568,0.271-3.785-0.021c-0.02-0.055,0.059-0.068,0.094-0.101c1.066-0.688,2.729-0.688,3.771,0.054
			C13.701,20.305,13.608,20.283,13.586,20.305 M14.686,19.99l-0.538,0.17c-0.093-0.047-0.171-0.113-0.251-0.182l0.023-0.035
			c0.734-0.426,1.396-0.944,2.029-1.565c0.309,0.124,0.606,0.296,0.885,0.486C16.189,19.373,15.442,19.708,14.686,19.99
			 M4.473,7.225C4.756,6.832,5.065,6.46,5.399,6.109c0.298-0.282,0.575-0.551,0.896-0.756c0.3,0.192,0.631,0.352,0.916,0.531
			C6.857,6.32,6.488,6.764,6.226,7.233c0.081,0.036,0.229,0.026,0.345,0c0.287-0.416,0.593-0.831,0.962-1.202
			c0.492,0.18,0.974,0.371,1.479,0.506l0.045,0.046l-0.285,0.65c0.127,0.026,0.207,0.013,0.331,0
			c0.103-0.188,0.183-0.401,0.299-0.595c0.665,0.148,1.364,0.226,2.077,0.248c0.09,0.08,0.021,0.248,0.056,0.347h0.31
			c0.035-0.11-0.014-0.234,0.035-0.334c0.664-0.036,1.363-0.104,2.006-0.261l0.057,0.012l0.311,0.583c0.102,0,0.24,0.026,0.32-0.022
			L14.285,6.56l0.025-0.022c0.525-0.135,1.02-0.338,1.521-0.54c0.357,0.37,0.688,0.81,0.988,1.236c0.128,0,0.251,0.013,0.345-0.023
			c-0.144-0.251-0.308-0.487-0.493-0.708c-0.151-0.215-0.32-0.418-0.506-0.609V5.838l0.803-0.463l0.117-0.046
			c0.699,0.53,1.309,1.165,1.808,1.881c0.138,0,0.255,0.05,0.369-0.007c-1.536-2.297-4.071-3.775-6.81-3.988l-0.014,0.021
			l-0.023-0.021c-0.308-0.033-0.688-0.047-1.02-0.013c-0.127-0.012-0.275,0-0.425,0.013C8.221,3.428,5.688,4.837,4.104,7.236
			C4.219,7.225,4.356,7.271,4.473,7.225 M9.23,6.234l-0.046,0.01C8.713,6.121,8.254,5.974,7.82,5.783l0.021-0.068
			C8.473,5.119,9.137,4.623,9.87,4.24c0.173,0.068,0.345,0.123,0.517,0.204l-0.035,0.087C9.918,5.072,9.574,5.658,9.23,6.234
			 M11.511,6.537c-0.319,0.046-0.608-0.01-0.931-0.033C10.273,6.459,9.883,6.425,9.574,6.32c0.331-0.615,0.723-1.214,1.191-1.764
			l0.733,0.1C11.534,5.241,11.511,5.92,11.511,6.537 M11.868,6.551c-0.024-0.601-0.013-1.264,0-1.884
			c0.228-0.032,0.479-0.067,0.709-0.1c0.448,0.563,0.885,1.138,1.183,1.753C13.139,6.472,12.504,6.549,11.868,6.551 M15.525,5.76
			c-0.447,0.19-0.909,0.371-1.401,0.475c-0.354-0.596-0.744-1.193-1.181-1.771c0.161-0.089,0.357-0.154,0.529-0.244
			c0.746,0.371,1.467,0.9,2.074,1.508L15.525,5.76z M14.055,3.835c0.965,0.249,1.871,0.675,2.697,1.261l-0.025,0.046L15.939,5.58
			h-0.063c-0.605-0.607-1.313-1.136-2.039-1.553C13.861,3.946,13.977,3.891,14.055,3.835 M13.597,3.721v0.023
			c-0.996,0.719-2.613,0.787-3.668,0.123C9.87,3.823,9.756,3.8,9.746,3.721C10.961,3.441,12.393,3.419,13.597,3.721 M6.602,5.119
			C7.327,4.59,8.13,4.195,8.979,3.924C9.012,3.891,9.037,3.855,9.08,3.855v0.023C9.172,3.9,9.24,3.8,9.319,3.865
			c0.069,0.059,0.151,0.104,0.21,0.16C8.816,4.463,8.117,4.982,7.477,5.611c-0.313-0.109-0.596-0.279-0.875-0.47V5.119L6.602,5.119z
			 M11.522,14.131c-1.077,0.292-2.249,0.07-3.026-0.744c-0.091-0.111-0.148-0.246-0.242-0.358L6.707,13.04
			c-0.025,0.911-0.036,1.96,0,2.862l1.721-0.012l0.023-0.542c0.193,0.091,0.389,0.204,0.586,0.304c1.19,0.496,2.725,0.609,3.906,0
			c0.859-0.471,1.318-1.383,1.193-2.365c-0.127-0.957-1.043-1.826-1.973-2.063l-2.775-0.799l-0.204-0.102
			c-0.091-0.079-0.147-0.18-0.128-0.305c0.217-0.372,0.725-0.26,1.102-0.249c0.803,0.112,1.628,0.386,2.098,1.116
			c0.504,0,1.089,0.01,1.641-0.012c0.023-0.924-0.012-1.732-0.024-2.67c-0.516-0.011-1.147-0.011-1.659,0.013
			c-0.025,0.134,0.02,0.325-0.039,0.46l-0.525-0.281c-1.262-0.53-3.027-0.586-4.172,0.237C6.729,9.174,6.501,10.143,6.694,11
			c0.149,0.81,0.927,1.407,1.675,1.688c1.02,0.358,2.084,0.621,3.119,0.97c0.104,0.047,0.239,0.148,0.217,0.271
			C11.705,14.03,11.604,14.089,11.522,14.131"/>
	</g>
	<rect fill="none" width="24" height="24"/>
</g>
</svg>
