<?xml version="1.0" encoding="utf-8"?>
<!-- Generator: Adobe Illustrator 16.0.0, SVG Export Plug-In . SVG Version: 6.00 Build 0)  -->
<!DOCTYPE svg PUBLIC "-//W3C//DTD SVG 1.1//EN" "http://www.w3.org/Graphics/SVG/1.1/DTD/svg11.dtd">
<svg version="1.1" id="Layer_1" xmlns="http://www.w3.org/2000/svg" xmlns:xlink="http://www.w3.org/1999/xlink" x="0px" y="0px"
	 width="196px" height="196px" viewBox="0 0 196 196" enable-background="new 0 0 196 196" xml:space="preserve">
<path fill="#006749" d="M193,3v190H3V3H193 M196,0H0v196h196V0L196,0z"/>
<path fill="#006749" d="M146.444,84.912l-44.69-44.69c-1.037-1.036-2.396-1.555-3.754-1.555c-1.359,0-2.718,0.519-3.755,1.555
	l-44.69,44.69c-2.073,2.073-2.073,5.435,0,7.509l44.69,44.689c1.037,1.037,2.396,1.556,3.755,1.556c1.358,0,2.717-0.519,3.754-1.556
	l44.69-44.689C148.518,90.347,148.518,86.985,146.444,84.912z M91.346,98.451c0,0.914-0.362,1.789-1.009,2.436l-4.228,4.227
	c-0.672,0.673-1.554,1.009-2.435,1.009c-0.882,0-1.764-0.336-2.436-1.009c-1.346-1.345-1.346-3.525,0-4.87l3.218-3.219V80.309
	l-3.218-3.219c-1.346-1.345-1.346-3.525,0-4.87c1.345-1.346,3.526-1.346,4.87,0l4.228,4.227c0.646,0.646,1.009,1.521,1.009,2.436
	V98.451z M114.76,100.243c1.346,1.345,1.346,3.525,0,4.87c-0.672,0.673-1.554,1.009-2.436,1.009c-0.881,0-1.763-0.336-2.435-1.009
	l-4.228-4.227c-0.646-0.646-1.009-1.521-1.009-2.436V78.882c0-0.914,0.362-1.79,1.009-2.436l4.228-4.227
	c1.344-1.346,3.525-1.346,4.87,0c1.346,1.345,1.346,3.525,0,4.87l-3.218,3.219v16.716L114.76,100.243z"/>
<g>
	<path fill="#006749" d="M37.635,162.438l1.541,0.488c-0.236,0.859-0.629,1.498-1.179,1.915s-1.247,0.626-2.093,0.626
		c-1.045,0-1.904-0.357-2.578-1.072c-0.673-0.714-1.01-1.69-1.01-2.93c0-1.311,0.339-2.328,1.016-3.054
		c0.677-0.725,1.566-1.087,2.67-1.087c0.963,0,1.745,0.284,2.347,0.854c0.358,0.337,0.626,0.82,0.806,1.45l-1.574,0.376
		c-0.093-0.408-0.287-0.73-0.582-0.967c-0.296-0.236-0.654-0.354-1.077-0.354c-0.583,0-1.058,0.21-1.421,0.628
		c-0.363,0.42-0.545,1.098-0.545,2.036c0,0.995,0.18,1.704,0.537,2.127s0.824,0.634,1.396,0.634c0.422,0,0.786-0.135,1.09-0.402
		C37.283,163.437,37.502,163.015,37.635,162.438z"/>
	<path fill="#006749" d="M40.492,165.333v-7.874h1.59v7.874H40.492z"/>
	<path fill="#006749" d="M45.605,165.333l-2.814-7.874h1.724l1.993,5.827l1.928-5.827h1.687l-2.819,7.874H45.605z"/>
	<path fill="#006749" d="M50.885,165.333v-7.874h1.59v7.874H50.885z"/>
	<path fill="#006749" d="M54.032,165.333v-7.81h1.59v6.483h3.953v1.326H54.032z"/>
	<path fill="#006749" d="M63.518,165.333v-7.874h1.59v7.874H63.518z"/>
	<path fill="#006749" d="M66.639,165.333v-7.874h1.547l3.223,5.259v-5.259h1.477v7.874h-1.596l-3.174-5.135v5.135H66.639z"/>
	<path fill="#006749" d="M74.576,165.333v-7.874h5.398v1.332h-3.809v1.864h3.287v1.332h-3.287v3.346H74.576z"/>
	<path fill="#006749" d="M81.291,165.333v-7.874h3.346c0.842,0,1.453,0.07,1.834,0.212s0.688,0.394,0.916,0.755
		s0.344,0.775,0.344,1.241c0,0.59-0.174,1.078-0.521,1.463c-0.347,0.385-0.866,0.628-1.557,0.729c0.344,0.2,0.627,0.42,0.852,0.66
		c0.223,0.24,0.525,0.666,0.904,1.278l0.961,1.536h-1.9l-1.15-1.713c-0.408-0.613-0.688-0.999-0.838-1.158s-0.309-0.269-0.478-0.327
		c-0.169-0.06-0.435-0.089-0.8-0.089h-0.322v3.287H81.291z M82.881,160.789h1.176c0.763,0,1.238-0.032,1.429-0.097
		s0.339-0.176,0.446-0.333s0.16-0.354,0.16-0.591c0-0.265-0.07-0.479-0.211-0.642c-0.143-0.163-0.342-0.267-0.6-0.31
		c-0.129-0.018-0.516-0.026-1.16-0.026h-1.24V160.789z"/>
	<path fill="#006749" d="M96.33,165.333H94.6l-0.688-1.789h-3.146l-0.65,1.789h-1.687l3.067-7.874h1.681L96.33,165.333z
		 M93.402,162.218l-1.085-2.922l-1.063,2.922H93.402z"/>
	<path fill="#006749" d="M96.77,162.771l1.547-0.15c0.094,0.52,0.283,0.901,0.566,1.145c0.285,0.243,0.67,0.365,1.152,0.365
		c0.513,0,0.898-0.108,1.158-0.325s0.389-0.47,0.389-0.76c0-0.187-0.055-0.345-0.164-0.476c-0.108-0.131-0.299-0.244-0.571-0.341
		c-0.187-0.064-0.61-0.179-1.272-0.344c-0.853-0.211-1.451-0.471-1.795-0.778c-0.482-0.434-0.725-0.962-0.725-1.585
		c0-0.401,0.113-0.776,0.342-1.125c0.227-0.35,0.555-0.615,0.982-0.798s0.944-0.273,1.549-0.273c0.988,0,1.732,0.216,2.232,0.649
		s0.762,1.012,0.787,1.735l-1.59,0.069c-0.068-0.404-0.215-0.695-0.438-0.873c-0.225-0.177-0.561-0.266-1.008-0.266
		c-0.462,0-0.824,0.095-1.085,0.284c-0.169,0.122-0.253,0.285-0.253,0.489c0,0.187,0.079,0.346,0.236,0.478
		c0.201,0.169,0.688,0.344,1.461,0.527c0.773,0.182,1.346,0.371,1.717,0.566s0.66,0.462,0.869,0.8
		c0.211,0.339,0.314,0.757,0.314,1.255c0,0.451-0.125,0.873-0.375,1.268c-0.251,0.394-0.605,0.687-1.064,0.878
		c-0.458,0.191-1.029,0.287-1.713,0.287c-0.996,0-1.76-0.23-2.293-0.69C97.192,164.322,96.874,163.651,96.77,162.771z"/>
	<path fill="#006749" d="M106.282,165.333v-6.542h-2.337v-1.332h6.258v1.332h-2.331v6.542H106.282z"/>
	<path fill="#006749" d="M111.234,165.333v-7.874h3.346c0.842,0,1.453,0.07,1.835,0.212c0.381,0.142,0.687,0.394,0.915,0.755
		c0.229,0.361,0.344,0.775,0.344,1.241c0,0.59-0.174,1.078-0.521,1.463s-0.866,0.628-1.558,0.729c0.344,0.2,0.627,0.42,0.852,0.66
		c0.224,0.24,0.525,0.666,0.904,1.278l0.962,1.536h-1.901l-1.149-1.713c-0.408-0.613-0.688-0.999-0.838-1.158
		s-0.31-0.269-0.478-0.327c-0.169-0.06-0.436-0.089-0.801-0.089h-0.322v3.287H111.234z M112.824,160.789H114
		c0.764,0,1.239-0.032,1.43-0.097c0.189-0.064,0.338-0.176,0.445-0.333s0.161-0.354,0.161-0.591c0-0.265-0.071-0.479-0.212-0.642
		c-0.142-0.163-0.342-0.267-0.6-0.31c-0.129-0.018-0.516-0.026-1.16-0.026h-1.24V160.789z"/>
	<path fill="#006749" d="M119.162,157.459h1.59v4.265c0,0.677,0.02,1.115,0.059,1.316c0.068,0.322,0.23,0.58,0.486,0.775
		s0.606,0.293,1.051,0.293c0.451,0,0.791-0.092,1.02-0.276c0.229-0.185,0.367-0.411,0.414-0.68s0.07-0.714,0.07-1.337v-4.356h1.59
		v4.136c0,0.945-0.043,1.613-0.129,2.004c-0.086,0.39-0.244,0.719-0.477,0.988c-0.23,0.268-0.539,0.482-0.926,0.642
		s-0.892,0.239-1.515,0.239c-0.752,0-1.322-0.087-1.71-0.261c-0.389-0.174-0.696-0.399-0.922-0.677s-0.374-0.568-0.445-0.873
		c-0.104-0.451-0.156-1.117-0.156-1.998V157.459z"/>
	<path fill="#006749" d="M132.154,162.438l1.542,0.488c-0.236,0.859-0.63,1.498-1.179,1.915c-0.55,0.417-1.247,0.626-2.092,0.626
		c-1.046,0-1.905-0.357-2.578-1.072c-0.674-0.714-1.01-1.69-1.01-2.93c0-1.311,0.338-2.328,1.015-3.054
		c0.677-0.725,1.566-1.087,2.669-1.087c0.964,0,1.746,0.284,2.348,0.854c0.357,0.337,0.627,0.82,0.806,1.45l-1.573,0.376
		c-0.094-0.408-0.288-0.73-0.583-0.967c-0.296-0.236-0.655-0.354-1.077-0.354c-0.584,0-1.057,0.21-1.421,0.628
		c-0.363,0.42-0.545,1.098-0.545,2.036c0,0.995,0.179,1.704,0.537,2.127s0.823,0.634,1.396,0.634c0.423,0,0.786-0.135,1.091-0.402
		C131.804,163.437,132.022,163.015,132.154,162.438z"/>
	<path fill="#006749" d="M136.833,165.333v-6.542h-2.337v-1.332h6.258v1.332h-2.331v6.542H136.833z"/>
	<path fill="#006749" d="M141.77,157.459h1.59v4.265c0,0.677,0.02,1.115,0.059,1.316c0.068,0.322,0.23,0.58,0.486,0.775
		s0.605,0.293,1.05,0.293c0.451,0,0.792-0.092,1.021-0.276s0.367-0.411,0.414-0.68c0.046-0.269,0.069-0.714,0.069-1.337v-4.356h1.59
		v4.136c0,0.945-0.043,1.613-0.129,2.004c-0.086,0.39-0.244,0.719-0.476,0.988c-0.23,0.268-0.539,0.482-0.926,0.642
		s-0.893,0.239-1.516,0.239c-0.752,0-1.322-0.087-1.71-0.261c-0.389-0.174-0.696-0.399-0.921-0.677
		c-0.227-0.277-0.375-0.568-0.446-0.873c-0.104-0.451-0.155-1.117-0.155-1.998V157.459z"/>
	<path fill="#006749" d="M149.729,165.333v-7.874h3.347c0.841,0,1.452,0.07,1.835,0.212c0.381,0.142,0.686,0.394,0.915,0.755
		s0.344,0.775,0.344,1.241c0,0.59-0.174,1.078-0.521,1.463c-0.348,0.385-0.867,0.628-1.559,0.729c0.344,0.2,0.628,0.42,0.852,0.66
		c0.225,0.24,0.525,0.666,0.905,1.278l0.962,1.536h-1.902l-1.148-1.713c-0.408-0.613-0.688-0.999-0.838-1.158
		s-0.311-0.269-0.479-0.327c-0.168-0.06-0.436-0.089-0.801-0.089h-0.322v3.287H149.729z M151.318,160.789h1.177
		c0.763,0,1.239-0.032,1.429-0.097s0.338-0.176,0.445-0.333s0.162-0.354,0.162-0.591c0-0.265-0.071-0.479-0.213-0.642
		c-0.141-0.163-0.341-0.267-0.599-0.31c-0.129-0.018-0.516-0.026-1.16-0.026h-1.241V160.789z"/>
	<path fill="#006749" d="M157.668,165.333v-7.874h5.838v1.332h-4.248v1.745h3.953v1.327h-3.953v2.144h4.398v1.326H157.668z"/>
</g>
</svg>
