<?xml version="1.0" encoding="utf-8"?>
<!-- Generator: Adobe Illustrator 16.0.0, SVG Export Plug-In . SVG Version: 6.00 Build 0)  -->
<!DOCTYPE svg PUBLIC "-//W3C//DTD SVG 1.1//EN" "http://www.w3.org/Graphics/SVG/1.1/DTD/svg11.dtd">
<svg version="1.1" id="Layer_1" xmlns="http://www.w3.org/2000/svg" xmlns:xlink="http://www.w3.org/1999/xlink" x="0px" y="0px"
	 width="196px" height="196px" viewBox="0 0 196 196" enable-background="new 0 0 196 196" xml:space="preserve">
<path fill="#006749" d="M193,3v190H3V3H193 M196,0H0v196h196V0L196,0z"/>
<g>
	<path fill="#006749" d="M72.043,38.667c-3.086,0-6.033,0.588-8.744,1.647l12.653,12.653c3.853,3.851,3.853,10.095,0,13.946
		c-1.925,1.925-4.449,2.888-6.973,2.888s-5.048-0.963-6.974-2.888L49.48,54.388C48.523,56.981,48,59.784,48,62.71
		c0,13.279,10.765,24.045,24.043,24.045c13.279,0,24.045-10.766,24.045-24.045C96.088,49.432,85.322,38.667,72.043,38.667z"/>
	<polygon fill="#006749" points="115.326,85.934 137.66,63.373 142.446,63.373 148,54.382 141.092,47.45 132.221,53.194 
		132.324,57.979 110.248,80.792 	"/>
	<g>
		<path fill="#006749" d="M97.996,76.691l-36.558,36.558c-5.815,5.815-5.815,15.243-0.001,21.057
			c5.815,5.815,15.243,5.815,21.058,0.001l37.313-37.313L97.996,76.691z M70.758,120.564c-0.452,0.453-1.047,0.68-1.64,0.68
			c-0.594,0-1.188-0.227-1.641-0.68c-0.907-0.906-0.907-2.376,0-3.281l29.676-29.678c0.905-0.906,2.375-0.906,3.281,0
			s0.906,2.376,0,3.281L70.758,120.564z M78.59,128.202c-0.453,0.453-1.047,0.68-1.641,0.68s-1.188-0.227-1.641-0.68
			c-0.906-0.905-0.906-2.375,0-3.281l29.676-29.677c0.905-0.906,2.375-0.906,3.281,0c0.907,0.905,0.907,2.376,0,3.281L78.59,128.202
			z"/>
	</g>
	<path fill="#006749" d="M143.985,115.271L125.333,97.89l-18.708,18.128l17.979,18.636c5.352,5.351,14.03,5.351,19.382-0.001
		C149.338,129.301,149.338,120.623,143.985,115.271z M133.744,130.52c-3.283,0-5.945-2.662-5.945-5.945
		c0-3.284,2.662-5.946,5.945-5.946c3.284,0,5.946,2.662,5.946,5.946C139.69,127.857,137.028,130.52,133.744,130.52z"/>
</g>
<g>
	<path fill="#006749" d="M31.28,163.665v-7.874h3.347c0.841,0,1.452,0.07,1.834,0.212c0.381,0.142,0.687,0.394,0.916,0.755
		c0.229,0.361,0.344,0.775,0.344,1.241c0,0.59-0.174,1.078-0.521,1.463s-0.867,0.628-1.558,0.729c0.344,0.2,0.628,0.42,0.852,0.66
		s0.525,0.666,0.905,1.278l0.961,1.536h-1.901l-1.149-1.713c-0.408-0.613-0.688-0.999-0.838-1.158s-0.31-0.269-0.479-0.327
		c-0.168-0.06-0.435-0.089-0.8-0.089H32.87v3.287H31.28z M32.87,159.121h1.177c0.762,0,1.238-0.032,1.428-0.097
		c0.19-0.064,0.339-0.176,0.446-0.333s0.161-0.354,0.161-0.591c0-0.265-0.07-0.479-0.212-0.642s-0.341-0.267-0.599-0.31
		c-0.129-0.018-0.516-0.026-1.16-0.026H32.87V159.121z"/>
	<path fill="#006749" d="M39.219,163.665v-7.874h5.838v1.332h-4.248v1.745h3.953v1.327h-3.953v2.144h4.398v1.326H39.219z"/>
	<path fill="#006749" d="M46.556,163.665v-7.874h2.552c0.967,0,1.597,0.039,1.891,0.118c0.451,0.118,0.828,0.375,1.133,0.771
		s0.457,0.907,0.457,1.534c0,0.482-0.088,0.89-0.264,1.219s-0.398,0.588-0.668,0.776c-0.271,0.188-0.546,0.313-0.825,0.373
		c-0.38,0.075-0.929,0.112-1.649,0.112h-1.036v2.971H46.556z M48.146,157.123v2.234h0.87c0.627,0,1.045-0.041,1.257-0.124
		c0.212-0.082,0.377-0.211,0.497-0.387c0.119-0.175,0.18-0.379,0.18-0.611c0-0.287-0.084-0.523-0.252-0.709
		c-0.169-0.187-0.382-0.303-0.64-0.35c-0.19-0.036-0.571-0.054-1.144-0.054H48.146z"/>
	<path fill="#006749" d="M60.177,163.665h-1.729l-0.688-1.789h-3.147l-0.649,1.789h-1.688l3.067-7.874h1.681L60.177,163.665z
		 M57.25,160.55l-1.086-2.922l-1.063,2.922H57.25z"/>
	<path fill="#006749" d="M60.972,163.665v-7.874h1.59v7.874H60.972z"/>
	<path fill="#006749" d="M64.082,163.665v-7.874h3.346c0.842,0,1.453,0.07,1.834,0.212s0.688,0.394,0.916,0.755
		s0.344,0.775,0.344,1.241c0,0.59-0.174,1.078-0.521,1.463c-0.347,0.385-0.866,0.628-1.557,0.729c0.344,0.2,0.627,0.42,0.852,0.66
		c0.223,0.24,0.525,0.666,0.904,1.278l0.961,1.536h-1.9l-1.15-1.713c-0.408-0.613-0.688-0.999-0.838-1.158s-0.309-0.269-0.478-0.327
		c-0.169-0.06-0.435-0.089-0.8-0.089h-0.322v3.287H64.082z M65.672,159.121h1.176c0.763,0,1.238-0.032,1.429-0.097
		s0.339-0.176,0.446-0.333s0.16-0.354,0.16-0.591c0-0.265-0.07-0.479-0.211-0.642c-0.143-0.163-0.342-0.267-0.6-0.31
		c-0.129-0.018-0.516-0.026-1.16-0.026h-1.24V159.121z"/>
	<path fill="#006749" d="M75.082,163.665v-7.874h3.346c0.842,0,1.453,0.07,1.834,0.212s0.688,0.394,0.916,0.755
		s0.344,0.775,0.344,1.241c0,0.59-0.174,1.078-0.521,1.463c-0.347,0.385-0.866,0.628-1.557,0.729c0.344,0.2,0.627,0.42,0.852,0.66
		c0.223,0.24,0.525,0.666,0.904,1.278l0.961,1.536h-1.9l-1.15-1.713c-0.408-0.613-0.688-0.999-0.838-1.158s-0.309-0.269-0.478-0.327
		c-0.169-0.06-0.435-0.089-0.8-0.089h-0.322v3.287H75.082z M76.672,159.121h1.176c0.763,0,1.238-0.032,1.429-0.097
		s0.339-0.176,0.446-0.333s0.16-0.354,0.16-0.591c0-0.265-0.07-0.479-0.211-0.642c-0.143-0.163-0.342-0.267-0.6-0.31
		c-0.129-0.018-0.516-0.026-1.16-0.026h-1.24V159.121z"/>
	<path fill="#006749" d="M83.02,163.665v-7.874h5.839v1.332h-4.249v1.745h3.953v1.327h-3.953v2.144h4.399v1.326H83.02z"/>
	<path fill="#006749" d="M90.362,163.665v-7.874h1.59v3.099h3.115v-3.099h1.59v7.874h-1.59v-3.443h-3.115v3.443H90.362z"/>
	<path fill="#006749" d="M105.401,163.665h-1.729l-0.688-1.789h-3.147l-0.649,1.789H97.5l3.067-7.874h1.681L105.401,163.665z
		 M102.475,160.55l-1.086-2.922l-1.063,2.922H102.475z"/>
	<path fill="#006749" d="M106.25,155.791h3.147c0.623,0,1.088,0.026,1.394,0.078c0.307,0.052,0.58,0.16,0.822,0.325
		c0.241,0.164,0.443,0.384,0.604,0.657c0.162,0.274,0.242,0.581,0.242,0.921c0,0.369-0.1,0.708-0.298,1.016
		c-0.199,0.308-0.468,0.539-0.809,0.693c0.479,0.139,0.849,0.377,1.106,0.714s0.387,0.732,0.387,1.187
		c0,0.358-0.083,0.707-0.25,1.045c-0.166,0.339-0.394,0.609-0.682,0.812c-0.289,0.202-0.645,0.326-1.066,0.373
		c-0.266,0.028-0.904,0.047-1.918,0.054h-2.68V155.791z M107.84,157.102v1.821h1.042c0.62,0,1.005-0.01,1.155-0.027
		c0.271-0.032,0.485-0.126,0.642-0.282c0.155-0.155,0.233-0.36,0.233-0.614c0-0.244-0.067-0.441-0.201-0.594
		c-0.135-0.152-0.334-0.244-0.6-0.277c-0.157-0.018-0.609-0.026-1.358-0.026H107.84z M107.84,160.233v2.105h1.472
		c0.573,0,0.937-0.017,1.091-0.049c0.236-0.043,0.428-0.147,0.577-0.314c0.148-0.166,0.223-0.389,0.223-0.668
		c0-0.236-0.058-0.438-0.172-0.602c-0.114-0.165-0.28-0.285-0.497-0.36s-0.687-0.112-1.41-0.112H107.84z"/>
	<path fill="#006749" d="M114.141,163.665v-7.874h1.59v7.874H114.141z"/>
	<path fill="#006749" d="M117.287,163.665v-7.81h1.59v6.483h3.953v1.326H117.287z"/>
	<path fill="#006749" d="M123.916,163.665v-7.874h1.59v7.874H123.916z"/>
	<path fill="#006749" d="M128.793,163.665v-6.542h-2.337v-1.332h6.257v1.332h-2.33v6.542H128.793z"/>
	<path fill="#006749" d="M140.023,163.665h-1.729l-0.688-1.789h-3.147l-0.65,1.789h-1.686l3.066-7.874h1.682L140.023,163.665z
		 M137.096,160.55l-1.084-2.922l-1.064,2.922H137.096z"/>
	<path fill="#006749" d="M141.822,163.665v-6.542h-2.336v-1.332h6.258v1.332h-2.332v6.542H141.822z"/>
	<path fill="#006749" d="M146.721,163.665v-7.874h1.59v7.874H146.721z"/>
	<path fill="#006749" d="M149.504,159.776c0-0.802,0.119-1.476,0.359-2.02c0.18-0.401,0.424-0.761,0.733-1.08
		c0.31-0.318,0.649-0.555,1.018-0.709c0.491-0.207,1.056-0.311,1.697-0.311c1.16,0,2.089,0.359,2.785,1.079s1.044,1.721,1.044,3.003
		c0,1.271-0.346,2.266-1.036,2.983s-1.614,1.077-2.771,1.077c-1.171,0-2.103-0.357-2.793-1.072
		C149.85,162.014,149.504,161.029,149.504,159.776z M151.142,159.723c0,0.892,0.206,1.567,0.618,2.027
		c0.411,0.46,0.934,0.69,1.568,0.69c0.633,0,1.153-0.229,1.56-0.685c0.407-0.457,0.61-1.142,0.61-2.055
		c0-0.902-0.198-1.575-0.594-2.02c-0.396-0.444-0.922-0.666-1.576-0.666c-0.656,0-1.184,0.225-1.585,0.674
		S151.142,158.816,151.142,159.723z"/>
	<path fill="#006749" d="M158.398,163.665v-7.874h1.547l3.223,5.259v-5.259h1.477v7.874h-1.596l-3.174-5.135v5.135H158.398z"/>
	<path fill="#006749" d="M51.729,172.977c0-0.802,0.119-1.476,0.359-2.02c0.18-0.401,0.424-0.761,0.733-1.08
		c0.31-0.318,0.649-0.555,1.018-0.709c0.491-0.207,1.056-0.311,1.697-0.311c1.16,0,2.089,0.359,2.785,1.079s1.044,1.721,1.044,3.003
		c0,1.271-0.346,2.266-1.036,2.983S56.715,177,55.558,177c-1.171,0-2.103-0.357-2.793-1.072
		C52.074,175.214,51.729,174.229,51.729,172.977z M53.366,172.923c0,0.892,0.206,1.567,0.618,2.027
		c0.411,0.46,0.934,0.69,1.568,0.69c0.633,0,1.153-0.229,1.56-0.685c0.407-0.457,0.61-1.142,0.61-2.055
		c0-0.902-0.198-1.575-0.594-2.02c-0.396-0.444-0.922-0.666-1.576-0.666c-0.656,0-1.184,0.225-1.585,0.674
		S53.366,172.017,53.366,172.923z"/>
	<path fill="#006749" d="M60.617,176.865v-7.874h5.398v1.332h-3.809v1.864h3.287v1.332h-3.287v3.346H60.617z"/>
	<path fill="#006749" d="M69.979,174.303l1.547-0.15c0.094,0.52,0.283,0.901,0.566,1.145c0.285,0.243,0.67,0.365,1.152,0.365
		c0.513,0,0.898-0.108,1.158-0.325s0.389-0.47,0.389-0.76c0-0.187-0.055-0.345-0.164-0.476c-0.108-0.131-0.299-0.244-0.571-0.341
		c-0.187-0.064-0.61-0.179-1.272-0.344c-0.853-0.211-1.451-0.471-1.795-0.778c-0.482-0.434-0.725-0.962-0.725-1.585
		c0-0.401,0.113-0.776,0.342-1.125c0.227-0.35,0.555-0.615,0.982-0.798s0.944-0.273,1.549-0.273c0.988,0,1.732,0.216,2.232,0.649
		s0.762,1.012,0.787,1.735l-1.59,0.069c-0.068-0.404-0.215-0.695-0.438-0.873c-0.225-0.177-0.561-0.266-1.008-0.266
		c-0.462,0-0.824,0.095-1.085,0.284c-0.169,0.122-0.253,0.285-0.253,0.489c0,0.187,0.079,0.346,0.236,0.478
		c0.201,0.169,0.688,0.344,1.461,0.527c0.773,0.182,1.346,0.371,1.717,0.566s0.66,0.462,0.869,0.8
		c0.211,0.339,0.314,0.757,0.314,1.255c0,0.451-0.125,0.873-0.375,1.268c-0.251,0.394-0.605,0.687-1.064,0.878
		c-0.458,0.191-1.029,0.287-1.713,0.287c-0.996,0-1.76-0.23-2.293-0.69C70.401,175.854,70.083,175.184,69.979,174.303z"/>
	<path fill="#006749" d="M79.491,176.865v-6.542h-2.337v-1.332h6.258v1.332h-2.331v6.542H79.491z"/>
	<path fill="#006749" d="M84.443,176.865v-7.874h3.346c0.842,0,1.453,0.07,1.835,0.212c0.381,0.142,0.687,0.394,0.915,0.755
		c0.229,0.361,0.344,0.775,0.344,1.241c0,0.59-0.174,1.078-0.521,1.463s-0.866,0.628-1.558,0.729c0.344,0.2,0.627,0.42,0.852,0.66
		c0.224,0.24,0.525,0.666,0.904,1.278l0.962,1.536h-1.901l-1.149-1.713c-0.408-0.613-0.688-0.999-0.838-1.158
		s-0.31-0.269-0.478-0.327c-0.169-0.06-0.436-0.089-0.801-0.089h-0.322v3.287H84.443z M86.033,172.321h1.176
		c0.764,0,1.239-0.032,1.43-0.097c0.189-0.064,0.338-0.176,0.445-0.333s0.161-0.354,0.161-0.591c0-0.265-0.071-0.479-0.212-0.642
		c-0.142-0.163-0.342-0.267-0.6-0.31c-0.129-0.018-0.516-0.026-1.16-0.026h-1.24V172.321z"/>
	<path fill="#006749" d="M92.371,168.991h1.59v4.265c0,0.677,0.02,1.115,0.059,1.316c0.068,0.322,0.23,0.58,0.486,0.775
		s0.606,0.293,1.051,0.293c0.451,0,0.791-0.092,1.02-0.276c0.229-0.185,0.367-0.411,0.414-0.68s0.07-0.714,0.07-1.337v-4.356h1.59
		v4.136c0,0.945-0.043,1.613-0.129,2.004c-0.086,0.39-0.244,0.719-0.477,0.988c-0.23,0.268-0.539,0.482-0.926,0.642
		S96.228,177,95.604,177c-0.752,0-1.322-0.087-1.71-0.261c-0.389-0.174-0.696-0.399-0.922-0.677s-0.374-0.568-0.445-0.873
		c-0.104-0.451-0.156-1.117-0.156-1.998V168.991z"/>
	<path fill="#006749" d="M105.363,173.971l1.542,0.488c-0.236,0.859-0.63,1.498-1.179,1.915c-0.55,0.417-1.247,0.626-2.092,0.626
		c-1.046,0-1.905-0.357-2.578-1.072c-0.674-0.714-1.01-1.69-1.01-2.93c0-1.311,0.338-2.328,1.015-3.054
		c0.677-0.725,1.566-1.087,2.669-1.087c0.964,0,1.746,0.284,2.348,0.854c0.357,0.337,0.627,0.82,0.806,1.45l-1.573,0.376
		c-0.094-0.408-0.288-0.73-0.583-0.967c-0.296-0.236-0.655-0.354-1.077-0.354c-0.584,0-1.057,0.21-1.421,0.628
		c-0.363,0.42-0.545,1.098-0.545,2.036c0,0.995,0.179,1.704,0.537,2.127s0.823,0.634,1.396,0.634c0.423,0,0.786-0.135,1.091-0.402
		C105.013,174.969,105.231,174.547,105.363,173.971z"/>
	<path fill="#006749" d="M110.042,176.865v-6.542h-2.337v-1.332h6.258v1.332h-2.331v6.542H110.042z"/>
	<path fill="#006749" d="M114.979,168.991h1.59v4.265c0,0.677,0.02,1.115,0.059,1.316c0.068,0.322,0.23,0.58,0.486,0.775
		s0.605,0.293,1.05,0.293c0.451,0,0.792-0.092,1.021-0.276s0.367-0.411,0.414-0.68c0.046-0.269,0.069-0.714,0.069-1.337v-4.356h1.59
		v4.136c0,0.945-0.043,1.613-0.129,2.004c-0.086,0.39-0.244,0.719-0.476,0.988c-0.23,0.268-0.539,0.482-0.926,0.642
		S118.834,177,118.211,177c-0.752,0-1.322-0.087-1.71-0.261c-0.389-0.174-0.696-0.399-0.921-0.677
		c-0.227-0.277-0.375-0.568-0.446-0.873c-0.104-0.451-0.155-1.117-0.155-1.998V168.991z"/>
	<path fill="#006749" d="M122.938,176.865v-7.874h3.347c0.841,0,1.452,0.07,1.835,0.212c0.381,0.142,0.686,0.394,0.915,0.755
		s0.344,0.775,0.344,1.241c0,0.59-0.174,1.078-0.521,1.463c-0.348,0.385-0.867,0.628-1.559,0.729c0.344,0.2,0.628,0.42,0.852,0.66
		c0.225,0.24,0.525,0.666,0.905,1.278l0.962,1.536h-1.902l-1.148-1.713c-0.408-0.613-0.688-0.999-0.838-1.158
		s-0.311-0.269-0.479-0.327c-0.168-0.06-0.436-0.089-0.801-0.089h-0.322v3.287H122.938z M124.527,172.321h1.177
		c0.763,0,1.239-0.032,1.429-0.097s0.338-0.176,0.445-0.333s0.162-0.354,0.162-0.591c0-0.265-0.071-0.479-0.213-0.642
		c-0.141-0.163-0.341-0.267-0.599-0.31c-0.129-0.018-0.516-0.026-1.16-0.026h-1.241V172.321z"/>
	<path fill="#006749" d="M130.877,176.865v-7.874h5.838v1.332h-4.248v1.745h3.953v1.327h-3.953v2.144h4.398v1.326H130.877z"/>
	<path fill="#006749" d="M137.811,174.303l1.547-0.15c0.094,0.52,0.282,0.901,0.566,1.145c0.285,0.243,0.669,0.365,1.152,0.365
		c0.512,0,0.898-0.108,1.157-0.325c0.26-0.217,0.39-0.47,0.39-0.76c0-0.187-0.055-0.345-0.164-0.476s-0.3-0.244-0.572-0.341
		c-0.186-0.064-0.609-0.179-1.272-0.344c-0.853-0.211-1.45-0.471-1.794-0.778c-0.483-0.434-0.725-0.962-0.725-1.585
		c0-0.401,0.113-0.776,0.341-1.125c0.228-0.35,0.555-0.615,0.982-0.798c0.429-0.183,0.944-0.273,1.55-0.273
		c0.988,0,1.732,0.216,2.231,0.649c0.5,0.434,0.763,1.012,0.787,1.735l-1.59,0.069c-0.067-0.404-0.214-0.695-0.438-0.873
		c-0.224-0.177-0.56-0.266-1.007-0.266c-0.463,0-0.824,0.095-1.086,0.284c-0.168,0.122-0.252,0.285-0.252,0.489
		c0,0.187,0.078,0.346,0.236,0.478c0.201,0.169,0.688,0.344,1.461,0.527c0.773,0.182,1.346,0.371,1.716,0.566
		c0.371,0.195,0.661,0.462,0.87,0.8c0.21,0.339,0.314,0.757,0.314,1.255c0,0.451-0.125,0.873-0.376,1.268
		c-0.251,0.394-0.604,0.687-1.063,0.878s-1.029,0.287-1.713,0.287c-0.996,0-1.76-0.23-2.294-0.69S137.914,175.184,137.811,174.303z"
		/>
</g>
</svg>
