<?xml version="1.0" encoding="utf-8"?>
<!-- Generator: Adobe Illustrator 16.0.0, SVG Export Plug-In . SVG Version: 6.00 Build 0)  -->
<!DOCTYPE svg PUBLIC "-//W3C//DTD SVG 1.1//EN" "http://www.w3.org/Graphics/SVG/1.1/DTD/svg11.dtd">
<svg version="1.1" id="Layer_1" xmlns="http://www.w3.org/2000/svg" xmlns:xlink="http://www.w3.org/1999/xlink" x="0px" y="0px"
	 width="196px" height="196px" viewBox="0 0 196 196" enable-background="new 0 0 196 196" xml:space="preserve">
<path fill="#006749" d="M193,3v190H3V3H193 M196,0H0v196h196V0L196,0z"/>
<g>
	<path fill="none" d="M98,61.525c-14.966,0-27.142,12.176-27.142,27.142S83.034,115.809,98,115.809s27.142-12.176,27.142-27.142
		S112.966,61.525,98,61.525z"/>
	<path fill="#006749" d="M147.561,95.207c0.28-2.142,0.439-4.321,0.439-6.54c0-2.16-0.152-4.283-0.419-6.371
		c-7.618-0.173-13.743-6.398-13.743-14.059c0-3.813,1.519-7.268,3.981-9.802c-2.725-3.582-5.92-6.783-9.496-9.515
		c-2.526,2.419-5.95,3.908-9.725,3.908c-7.654,0-13.875-6.113-14.059-13.723c-2.142-0.279-4.321-0.439-6.54-0.439
		c-2.16,0-4.283,0.152-6.371,0.418c-0.173,7.619-6.398,13.744-14.06,13.744c-3.812,0-7.267-1.519-9.801-3.98
		c-3.58,2.723-6.78,5.917-9.511,9.49c2.518,2.542,4.073,6.038,4.073,9.898c0,7.717-6.216,13.979-13.913,14.063
		C48.152,84.386,48,86.509,48,88.667c0,2.217,0.159,4.396,0.438,6.536c7.688,0.094,13.893,6.353,13.893,14.063
		c0,3.822-1.527,7.286-4.001,9.821c2.734,3.561,5.932,6.744,9.511,9.455c2.527-2.422,5.952-3.913,9.729-3.913
		c7.619,0,13.819,6.059,14.056,13.62c2.09,0.266,4.214,0.418,6.375,0.418c2.219,0,4.4-0.16,6.544-0.44
		c0.247-7.551,6.443-13.598,14.055-13.598c3.738,0,7.134,1.462,9.653,3.841c3.573-2.721,6.768-5.911,9.494-9.479
		c-2.419-2.526-3.908-5.95-3.908-9.725C133.838,101.611,139.95,95.391,147.561,95.207z M98,115.809
		c-14.966,0-27.142-12.176-27.142-27.142S83.034,61.525,98,61.525s27.142,12.176,27.142,27.142S112.966,115.809,98,115.809z"/>
	<path fill="#006749" d="M109.724,87.546c-0.156-0.375-0.521-0.619-0.928-0.619h-7.735l4.224-13.496
		c0.139-0.441-0.042-0.92-0.438-1.159c-0.161-0.098-0.341-0.145-0.52-0.145c-0.26,0-0.517,0.1-0.711,0.294L87.175,88.862
		c-0.286,0.287-0.372,0.719-0.217,1.095c0.155,0.374,0.521,0.619,0.928,0.619h7.734l-4.224,13.495
		c-0.139,0.441,0.042,0.92,0.438,1.159c0.161,0.098,0.342,0.145,0.521,0.145c0.26,0,0.517-0.1,0.71-0.293l16.441-16.442
		C109.793,88.353,109.879,87.921,109.724,87.546z"/>
</g>
<g>
	<path fill="#006749" d="M24.035,165.333v-7.874h5.838v1.332h-4.248v1.745h3.953v1.327h-3.953v2.144h4.398v1.326H24.035z"/>
	<path fill="#006749" d="M31.414,165.333v-7.81h1.59v6.483h3.953v1.326H31.414z"/>
	<path fill="#006749" d="M38.091,165.333v-7.874h5.839v1.332h-4.249v1.745h3.953v1.327h-3.953v2.144h4.399v1.326H38.091z"/>
	<path fill="#006749" d="M50.466,162.438l1.542,0.488c-0.236,0.859-0.63,1.498-1.18,1.915c-0.549,0.417-1.246,0.626-2.092,0.626
		c-1.045,0-1.904-0.357-2.578-1.072c-0.674-0.714-1.01-1.69-1.01-2.93c0-1.311,0.338-2.328,1.016-3.054
		c0.676-0.725,1.566-1.087,2.669-1.087c0.964,0,1.745,0.284,2.347,0.854c0.358,0.337,0.627,0.82,0.807,1.45l-1.574,0.376
		c-0.094-0.408-0.287-0.73-0.582-0.967c-0.297-0.236-0.655-0.354-1.078-0.354c-0.583,0-1.057,0.21-1.42,0.628
		c-0.363,0.42-0.545,1.098-0.545,2.036c0,0.995,0.179,1.704,0.537,2.127c0.357,0.423,0.823,0.634,1.396,0.634
		c0.422,0,0.785-0.135,1.09-0.402C50.115,163.437,50.334,163.015,50.466,162.438z"/>
	<path fill="#006749" d="M55.145,165.333v-6.542h-2.337v-1.332h6.257v1.332h-2.33v6.542H55.145z"/>
	<path fill="#006749" d="M60.096,165.333v-7.874h3.347c0.841,0,1.452,0.07,1.835,0.212c0.381,0.142,0.686,0.394,0.915,0.755
		s0.344,0.775,0.344,1.241c0,0.59-0.174,1.078-0.521,1.463c-0.348,0.385-0.867,0.628-1.559,0.729c0.344,0.2,0.628,0.42,0.852,0.66
		c0.225,0.24,0.525,0.666,0.905,1.278l0.962,1.536h-1.902l-1.148-1.713c-0.408-0.613-0.688-0.999-0.838-1.158
		s-0.311-0.269-0.479-0.327c-0.168-0.06-0.436-0.089-0.801-0.089h-0.322v3.287H60.096z M61.686,160.789h1.177
		c0.763,0,1.239-0.032,1.429-0.097s0.338-0.176,0.445-0.333s0.162-0.354,0.162-0.591c0-0.265-0.071-0.479-0.213-0.642
		c-0.141-0.163-0.341-0.267-0.599-0.31c-0.129-0.018-0.516-0.026-1.16-0.026h-1.241V160.789z"/>
	<path fill="#006749" d="M67.986,165.333v-7.874h1.59v7.874H67.986z"/>
	<path fill="#006749" d="M76.129,162.438l1.541,0.488c-0.236,0.859-0.629,1.498-1.178,1.915c-0.551,0.417-1.248,0.626-2.093,0.626
		c-1.046,0-1.905-0.357-2.578-1.072c-0.673-0.714-1.01-1.69-1.01-2.93c0-1.311,0.339-2.328,1.015-3.054
		c0.678-0.725,1.566-1.087,2.67-1.087c0.963,0,1.746,0.284,2.348,0.854c0.357,0.337,0.626,0.82,0.805,1.45l-1.573,0.376
		c-0.093-0.408-0.288-0.73-0.583-0.967s-0.654-0.354-1.076-0.354c-0.584,0-1.058,0.21-1.422,0.628
		c-0.363,0.42-0.545,1.098-0.545,2.036c0,0.995,0.18,1.704,0.537,2.127c0.358,0.423,0.824,0.634,1.396,0.634
		c0.423,0,0.787-0.135,1.091-0.402C75.777,163.437,75.996,163.015,76.129,162.438z"/>
	<path fill="#006749" d="M86.135,165.333h-1.729l-0.688-1.789H80.57l-0.649,1.789h-1.687l3.066-7.874h1.682L86.135,165.333z
		 M83.208,162.218l-1.085-2.922l-1.063,2.922H83.208z"/>
	<path fill="#006749" d="M87.021,165.333v-7.81h1.59v6.483h3.953v1.326H87.021z"/>
	<path fill="#006749" d="M96.555,165.333v-7.874h5.839v1.332h-4.249v1.745h3.953v1.327h-3.953v2.144h4.399v1.326H96.555z"/>
	<path fill="#006749" d="M103.908,165.333v-7.874h1.547l3.223,5.259v-5.259h1.477v7.874h-1.595l-3.175-5.135v5.135H103.908z"/>
	<path fill="#006749" d="M115.499,162.438v-1.327h3.427v3.137c-0.333,0.322-0.815,0.606-1.447,0.852
		c-0.633,0.245-1.272,0.368-1.92,0.368c-0.824,0-1.542-0.173-2.154-0.519s-1.072-0.84-1.381-1.482
		c-0.308-0.643-0.461-1.342-0.461-2.098c0-0.82,0.172-1.549,0.516-2.187c0.344-0.637,0.846-1.126,1.509-1.466
		c0.505-0.262,1.134-0.392,1.886-0.392c0.977,0,1.74,0.204,2.291,0.614c0.549,0.41,0.902,0.977,1.061,1.7l-1.58,0.295
		c-0.11-0.387-0.318-0.691-0.625-0.915s-0.688-0.336-1.146-0.336c-0.695,0-1.248,0.22-1.658,0.661
		c-0.409,0.439-0.614,1.094-0.614,1.96c0,0.935,0.208,1.636,0.623,2.103c0.415,0.468,0.96,0.701,1.633,0.701
		c0.333,0,0.667-0.065,1.001-0.196c0.336-0.131,0.623-0.289,0.863-0.476v-0.998H115.499z"/>
	<path fill="#006749" d="M120.344,165.333v-7.874h1.59v7.874H120.344z"/>
	<path fill="#006749" d="M123.465,165.333v-7.874h1.547l3.223,5.259v-5.259h1.477v7.874h-1.596l-3.174-5.135v5.135H123.465z"/>
	<path fill="#006749" d="M131.393,165.333v-7.874h5.838v1.332h-4.248v1.745h3.953v1.327h-3.953v2.144h4.398v1.326H131.393z"/>
	<path fill="#006749" d="M138.729,165.333v-7.874h5.839v1.332h-4.249v1.745h3.953v1.327h-3.953v2.144h4.399v1.326H138.729z"/>
	<path fill="#006749" d="M146.071,165.333v-7.874h3.347c0.841,0,1.452,0.07,1.834,0.212c0.381,0.142,0.687,0.394,0.916,0.755
		c0.229,0.361,0.344,0.775,0.344,1.241c0,0.59-0.174,1.078-0.521,1.463s-0.867,0.628-1.558,0.729c0.344,0.2,0.628,0.42,0.852,0.66
		s0.525,0.666,0.905,1.278l0.961,1.536h-1.901l-1.149-1.713c-0.408-0.613-0.688-0.999-0.838-1.158s-0.31-0.269-0.479-0.327
		c-0.168-0.06-0.435-0.089-0.8-0.089h-0.322v3.287H146.071z M147.661,160.789h1.177c0.762,0,1.238-0.032,1.428-0.097
		c0.19-0.064,0.339-0.176,0.446-0.333s0.161-0.354,0.161-0.591c0-0.265-0.07-0.479-0.212-0.642s-0.341-0.267-0.599-0.31
		c-0.129-0.018-0.516-0.026-1.16-0.026h-1.241V160.789z"/>
	<path fill="#006749" d="M153.961,165.333v-7.874h1.59v7.874H153.961z"/>
	<path fill="#006749" d="M157.082,165.333v-7.874h1.547l3.223,5.259v-5.259h1.477v7.874h-1.595l-3.175-5.135v5.135H157.082z"/>
	<path fill="#006749" d="M168.673,162.438v-1.327h3.427v3.137c-0.333,0.322-0.815,0.606-1.447,0.852
		c-0.633,0.245-1.272,0.368-1.92,0.368c-0.824,0-1.542-0.173-2.154-0.519s-1.072-0.84-1.381-1.482
		c-0.308-0.643-0.461-1.342-0.461-2.098c0-0.82,0.172-1.549,0.516-2.187c0.344-0.637,0.846-1.126,1.509-1.466
		c0.505-0.262,1.134-0.392,1.886-0.392c0.977,0,1.74,0.204,2.291,0.614c0.549,0.41,0.902,0.977,1.061,1.7l-1.58,0.295
		c-0.11-0.387-0.318-0.691-0.625-0.915s-0.688-0.336-1.146-0.336c-0.695,0-1.248,0.22-1.658,0.661
		c-0.409,0.439-0.614,1.094-0.614,1.96c0,0.935,0.208,1.636,0.623,2.103c0.415,0.468,0.96,0.701,1.633,0.701
		c0.333,0,0.667-0.065,1.001-0.196c0.336-0.131,0.623-0.289,0.863-0.476v-0.998H168.673z"/>
</g>
</svg>
