<?xml version="1.0" encoding="utf-8"?>
<!-- Generator: Adobe Illustrator 16.0.0, SVG Export Plug-In . SVG Version: 6.00 Build 0)  -->
<!DOCTYPE svg PUBLIC "-//W3C//DTD SVG 1.1//EN" "http://www.w3.org/Graphics/SVG/1.1/DTD/svg11.dtd">
<svg version="1.1" id="Layer_1" xmlns="http://www.w3.org/2000/svg" xmlns:xlink="http://www.w3.org/1999/xlink" x="0px" y="0px"
	 width="196px" height="196px" viewBox="0 0 196 196" enable-background="new 0 0 196 196" xml:space="preserve">
<path fill="#006749" d="M193,3v190H3V3H193 M196,0H0v196h196V0L196,0z"/>
<g>
	<polygon fill="#006749" points="89.558,117.773 93.591,119.102 93.591,46.257 89.558,47.928 	"/>
	<polygon fill="#006749" points="77.175,113.694 80.271,114.715 80.271,51.775 77.175,53.059 	"/>
	<polygon fill="#006749" points="84.384,50.069 82.803,50.725 82.803,115.549 86.742,116.846 86.742,49.093 84.384,50.069 	"/>
	<polygon fill="#006749" points="96.948,120.208 102.209,121.94 102.209,42.688 96.948,44.865 	"/>
	<polygon fill="#006749" points="114.194,39.242 114.194,125.803 132.615,121.623 132.615,44.785 	"/>
	<polygon fill="#006749" points="68.055,51.637 68.055,55.61 73.234,53.953 	"/>
	<polygon fill="#006749" points="68.055,110.691 70.233,111.408 70.233,55.936 68.055,56.839 	"/>
	<polygon fill="#006749" points="59.022,107.717 66.335,110.125 66.335,51.67 59.022,55.32 	"/>
	<polygon fill="#006749" points="105.599,123.057 111.919,125.139 111.919,38.667 105.599,41.284 	"/>
	<polygon fill="#006749" points="72.39,112.119 75.018,112.984 75.018,53.953 72.39,55.042 	"/>
	<polygon fill="#006749" points="72.39,53.58 72.39,53.713 72.54,53.648 	"/>
	<rect x="78.721" y="50.739" fill="#006749" width="0.004" height="3.351"/>
	
		<rect x="82.738" y="50.397" transform="matrix(0.9238 -0.3829 0.3829 0.9238 -12.9259 35.8458)" fill="#006749" width="1.711" height="0"/>
	<polygon fill="#006749" points="48,110.125 57.381,108.419 112.916,128.271 133.835,123.59 148,128.271 114.194,138.667 	"/>
</g>
<g>
	<path fill="#006749" d="M62.513,165.333h-1.729l-0.688-1.789h-3.147l-0.65,1.789h-1.687l3.067-7.874h1.681L62.513,165.333z
		 M59.586,162.218l-1.085-2.922l-1.063,2.922H59.586z"/>
	<path fill="#006749" d="M63.362,165.333v-7.874h3.346c0.841,0,1.453,0.07,1.834,0.212c0.381,0.142,0.687,0.394,0.916,0.755
		s0.344,0.775,0.344,1.241c0,0.59-0.174,1.078-0.521,1.463s-0.867,0.628-1.558,0.729c0.344,0.2,0.627,0.42,0.852,0.66
		c0.224,0.24,0.525,0.666,0.905,1.278l0.961,1.536H68.54l-1.149-1.713c-0.408-0.613-0.688-0.999-0.838-1.158
		s-0.31-0.269-0.478-0.327c-0.168-0.06-0.435-0.089-0.8-0.089h-0.322v3.287H63.362z M64.952,160.789h1.176
		c0.763,0,1.239-0.032,1.429-0.097s0.338-0.176,0.446-0.333s0.161-0.354,0.161-0.591c0-0.265-0.071-0.479-0.212-0.642
		c-0.142-0.163-0.341-0.267-0.599-0.31c-0.129-0.018-0.516-0.026-1.16-0.026h-1.241V160.789z"/>
	<path fill="#006749" d="M76.338,162.438l1.542,0.488c-0.236,0.859-0.629,1.498-1.179,1.915c-0.55,0.417-1.247,0.626-2.092,0.626
		c-1.045,0-1.905-0.357-2.578-1.072c-0.673-0.714-1.01-1.69-1.01-2.93c0-1.311,0.338-2.328,1.015-3.054
		c0.677-0.725,1.566-1.087,2.669-1.087c0.963,0,1.746,0.284,2.347,0.854c0.358,0.337,0.626,0.82,0.806,1.45l-1.574,0.376
		c-0.093-0.408-0.288-0.73-0.583-0.967c-0.296-0.236-0.655-0.354-1.077-0.354c-0.583,0-1.057,0.21-1.421,0.628
		c-0.363,0.42-0.545,1.098-0.545,2.036c0,0.995,0.179,1.704,0.537,2.127s0.824,0.634,1.396,0.634c0.422,0,0.786-0.135,1.09-0.402
		C75.987,163.437,76.206,163.015,76.338,162.438z"/>
	<path fill="#006749" d="M79.25,165.333v-7.874h1.59v3.099h3.115v-3.099h1.59v7.874h-1.59v-3.443h-3.115v3.443H79.25z"/>
	<path fill="#006749" d="M87.14,165.333v-7.874h1.59v7.874H87.14z"/>
	<path fill="#006749" d="M92.017,165.333v-6.542H89.68v-1.332h6.257v1.332h-2.331v6.542H92.017z"/>
	<path fill="#006749" d="M96.963,165.333v-7.874h5.838v1.332h-4.249v1.745h3.953v1.327h-3.953v2.144h4.399v1.326H96.963z"/>
	<path fill="#006749" d="M109.338,162.438l1.542,0.488c-0.236,0.859-0.629,1.498-1.179,1.915c-0.55,0.417-1.247,0.626-2.092,0.626
		c-1.045,0-1.905-0.357-2.578-1.072c-0.673-0.714-1.01-1.69-1.01-2.93c0-1.311,0.338-2.328,1.015-3.054
		c0.677-0.725,1.566-1.087,2.669-1.087c0.963,0,1.746,0.284,2.347,0.854c0.358,0.337,0.626,0.82,0.806,1.45l-1.574,0.376
		c-0.093-0.408-0.288-0.73-0.583-0.967c-0.296-0.236-0.655-0.354-1.077-0.354c-0.583,0-1.057,0.21-1.421,0.628
		c-0.363,0.42-0.545,1.098-0.545,2.036c0,0.995,0.179,1.704,0.537,2.127s0.824,0.634,1.396,0.634c0.422,0,0.786-0.135,1.09-0.402
		C108.987,163.437,109.206,163.015,109.338,162.438z"/>
	<path fill="#006749" d="M114.017,165.333v-6.542h-2.336v-1.332h6.257v1.332h-2.331v6.542H114.017z"/>
	<path fill="#006749" d="M118.953,157.459h1.59v4.265c0,0.677,0.02,1.115,0.059,1.316c0.068,0.322,0.23,0.58,0.486,0.775
		c0.256,0.195,0.606,0.293,1.05,0.293c0.451,0,0.792-0.092,1.021-0.276s0.367-0.411,0.414-0.68s0.07-0.714,0.07-1.337v-4.356h1.59
		v4.136c0,0.945-0.043,1.613-0.129,2.004c-0.086,0.39-0.244,0.719-0.476,0.988c-0.23,0.268-0.54,0.482-0.926,0.642
		s-0.892,0.239-1.515,0.239c-0.752,0-1.322-0.087-1.71-0.261c-0.389-0.174-0.696-0.399-0.921-0.677s-0.374-0.568-0.446-0.873
		c-0.104-0.451-0.156-1.117-0.156-1.998V157.459z"/>
	<path fill="#006749" d="M126.913,165.333v-7.874h3.346c0.841,0,1.453,0.07,1.834,0.212c0.381,0.142,0.687,0.394,0.916,0.755
		s0.344,0.775,0.344,1.241c0,0.59-0.174,1.078-0.521,1.463s-0.867,0.628-1.558,0.729c0.344,0.2,0.627,0.42,0.852,0.66
		c0.224,0.24,0.525,0.666,0.905,1.278l0.961,1.536h-1.901l-1.149-1.713c-0.408-0.613-0.688-0.999-0.838-1.158
		s-0.31-0.269-0.478-0.327c-0.168-0.06-0.435-0.089-0.8-0.089h-0.322v3.287H126.913z M128.502,160.789h1.176
		c0.763,0,1.239-0.032,1.429-0.097s0.338-0.176,0.446-0.333s0.161-0.354,0.161-0.591c0-0.265-0.071-0.479-0.212-0.642
		c-0.142-0.163-0.341-0.267-0.599-0.31c-0.129-0.018-0.516-0.026-1.16-0.026h-1.241V160.789z"/>
	<path fill="#006749" d="M134.851,165.333v-7.874h5.838v1.332h-4.249v1.745h3.953v1.327h-3.953v2.144h4.399v1.326H134.851z"/>
</g>
</svg>
