<?xml version="1.0" encoding="utf-8"?>
<!-- Generator: Adobe Illustrator 16.0.0, SVG Export Plug-In . SVG Version: 6.00 Build 0)  -->
<!DOCTYPE svg PUBLIC "-//W3C//DTD SVG 1.1//EN" "http://www.w3.org/Graphics/SVG/1.1/DTD/svg11.dtd">
<svg version="1.1" id="Layer_1" xmlns="http://www.w3.org/2000/svg" xmlns:xlink="http://www.w3.org/1999/xlink" x="0px" y="0px"
	 width="196px" height="196px" viewBox="0 0 196 196" enable-background="new 0 0 196 196" xml:space="preserve">
<path fill="#006749" d="M193,3v190H3V3H193 M196,0H0v196h196V0L196,0z"/>
<g>
	<g>
		<polygon fill="#006749" points="98.526,130.513 98.525,130.513 98.525,130.513 		"/>
		<path fill="#006749" d="M148,138.667l-9.08-15.822l-4.141,7.128l-12.326-13.752c0.543-1.437,0.408-2.811,0.408-2.811V91.909
			c0,0,0.207-2.969-2.211-4.203l-19.241-11.238c0,0-0.358-0.383-2.003-0.486V54.466h8.242l-9.123-15.799l-9.122,15.799h8.243v21.516
			c-1.646,0.104-2.004,0.486-2.004,0.486l-19.24,11.238c-2.418,1.234-2.211,4.203-2.211,4.203v21.501c0,0-0.104,1.063,0.238,2.297
			l-13.209,14.266l-4.141-7.128L48,138.667l18.243-0.045l-4.14-7.129l13.059-14.178c0.389,0.565,0.924,1.086,1.668,1.47
			l18.569,10.653c0,0,1.71,1.074,3.126,1.074c1.418,0,3.128-1.074,3.128-1.074l18.569-10.653c0.554-0.286,0.991-0.649,1.34-1.048
			l12.334,13.756l-4.14,7.129L148,138.667z"/>
	</g>
	<polygon fill="#F4F4F6" points="77.905,114.796 96.571,125.36 96.571,104.231 77.905,93.668 	"/>
	<polygon fill="#F4F4F6" points="100.452,104.231 100.452,125.36 119.119,114.796 119.119,93.668 	"/>
	<polygon fill="#F4F4F6" points="98.525,79.497 80.25,89.856 98.525,100.704 116.802,89.856 	"/>
</g>
<g>
	<path fill="#006749" d="M32.304,157.459h3.147c0.623,0,1.088,0.026,1.394,0.078c0.307,0.052,0.58,0.16,0.822,0.325
		c0.241,0.164,0.443,0.384,0.604,0.657c0.161,0.274,0.242,0.581,0.242,0.921c0,0.369-0.1,0.708-0.298,1.016
		c-0.199,0.308-0.468,0.539-0.809,0.693c0.48,0.139,0.849,0.377,1.106,0.714s0.387,0.732,0.387,1.187
		c0,0.358-0.083,0.707-0.25,1.045c-0.166,0.339-0.394,0.609-0.682,0.812c-0.289,0.202-0.644,0.326-1.066,0.373
		c-0.265,0.028-0.904,0.047-1.917,0.054h-2.68V157.459z M33.894,158.77v1.821h1.042c0.62,0,1.004-0.01,1.155-0.027
		c0.272-0.032,0.486-0.126,0.642-0.282c0.155-0.155,0.233-0.36,0.233-0.614c0-0.244-0.067-0.441-0.201-0.594
		c-0.135-0.152-0.334-0.244-0.599-0.277c-0.158-0.018-0.61-0.026-1.359-0.026H33.894z M33.894,161.901v2.105h1.472
		c0.573,0,0.937-0.017,1.09-0.049c0.236-0.043,0.429-0.147,0.578-0.314c0.148-0.166,0.223-0.389,0.223-0.668
		c0-0.236-0.057-0.438-0.172-0.602c-0.115-0.165-0.28-0.285-0.497-0.36c-0.216-0.075-0.687-0.112-1.41-0.112H33.894z"/>
	<path fill="#006749" d="M40.231,157.459h1.59v4.265c0,0.677,0.02,1.115,0.059,1.316c0.068,0.322,0.23,0.58,0.486,0.775
		c0.256,0.195,0.606,0.293,1.05,0.293c0.451,0,0.792-0.092,1.021-0.276s0.367-0.411,0.414-0.68s0.07-0.714,0.07-1.337v-4.356h1.59
		v4.136c0,0.945-0.043,1.613-0.129,2.004c-0.086,0.39-0.244,0.719-0.476,0.988c-0.23,0.268-0.54,0.482-0.926,0.642
		s-0.892,0.239-1.515,0.239c-0.752,0-1.322-0.087-1.71-0.261c-0.389-0.174-0.696-0.399-0.921-0.677s-0.374-0.568-0.446-0.873
		c-0.104-0.451-0.156-1.117-0.156-1.998V157.459z"/>
	<path fill="#006749" d="M48.138,165.333v-7.874h1.59v7.874H48.138z"/>
	<path fill="#006749" d="M51.285,165.333v-7.81h1.59v6.483h3.953v1.326H51.285z"/>
	<path fill="#006749" d="M57.956,157.459h2.906c0.655,0,1.155,0.05,1.499,0.15c0.462,0.136,0.857,0.378,1.187,0.726
		c0.33,0.347,0.58,0.772,0.752,1.275s0.258,1.123,0.258,1.861c0,0.647-0.081,1.206-0.242,1.676
		c-0.197,0.572-0.478,1.036-0.843,1.391c-0.276,0.269-0.648,0.479-1.117,0.629c-0.351,0.11-0.82,0.166-1.407,0.166h-2.992V157.459z
		 M59.546,158.791v5.216h1.187c0.444,0,0.765-0.025,0.961-0.076c0.258-0.064,0.472-0.173,0.642-0.327
		c0.17-0.154,0.309-0.407,0.417-0.76s0.161-0.834,0.161-1.442s-0.054-1.076-0.161-1.402c-0.107-0.325-0.258-0.58-0.451-0.762
		c-0.193-0.184-0.438-0.307-0.736-0.371c-0.222-0.05-0.657-0.075-1.305-0.075H59.546z"/>
	<path fill="#006749" d="M65.857,165.333v-7.874h1.59v7.874H65.857z"/>
	<path fill="#006749" d="M68.978,165.333v-7.874h1.547l3.223,5.259v-5.259h1.477v7.874h-1.595l-3.174-5.135v5.135H68.978z"/>
	<path fill="#006749" d="M80.568,162.438v-1.327h3.427v3.137c-0.333,0.322-0.815,0.606-1.448,0.852
		c-0.632,0.245-1.272,0.368-1.92,0.368c-0.824,0-1.542-0.173-2.154-0.519s-1.072-0.84-1.38-1.482s-0.462-1.342-0.462-2.098
		c0-0.82,0.172-1.549,0.516-2.187c0.344-0.637,0.847-1.126,1.509-1.466c0.505-0.262,1.133-0.392,1.885-0.392
		c0.978,0,1.741,0.204,2.291,0.614c0.549,0.41,0.903,0.977,1.061,1.7l-1.579,0.295c-0.111-0.387-0.319-0.691-0.626-0.915
		c-0.306-0.224-0.688-0.336-1.146-0.336c-0.695,0-1.247,0.22-1.657,0.661c-0.41,0.439-0.615,1.094-0.615,1.96
		c0,0.935,0.208,1.636,0.623,2.103c0.416,0.468,0.959,0.701,1.633,0.701c0.333,0,0.667-0.065,1.001-0.196
		c0.335-0.131,0.623-0.289,0.862-0.476v-0.998H80.568z"/>
	<path fill="#006749" d="M88.469,165.333v-7.874h1.59v7.874H88.469z"/>
	<path fill="#006749" d="M91.59,165.333v-7.874h1.547l3.223,5.259v-5.259h1.477v7.874h-1.595l-3.174-5.135v5.135H91.59z"/>
	<path fill="#006749" d="M99.528,165.333v-7.874h5.398v1.332h-3.808v1.864h3.287v1.332h-3.287v3.346H99.528z"/>
	<path fill="#006749" d="M105.915,161.444c0-0.802,0.12-1.476,0.36-2.02c0.179-0.401,0.423-0.761,0.733-1.08
		c0.31-0.318,0.649-0.555,1.018-0.709c0.491-0.207,1.056-0.311,1.697-0.311c1.16,0,2.088,0.359,2.785,1.079
		c0.696,0.72,1.044,1.721,1.044,3.003c0,1.271-0.346,2.266-1.037,2.983s-1.615,1.077-2.771,1.077c-1.171,0-2.102-0.357-2.793-1.072
		C106.26,163.682,105.915,162.697,105.915,161.444z M107.553,161.391c0,0.892,0.206,1.567,0.618,2.027s0.935,0.69,1.568,0.69
		s1.154-0.229,1.56-0.685c0.407-0.457,0.61-1.142,0.61-2.055c0-0.902-0.198-1.575-0.593-2.02c-0.396-0.444-0.921-0.666-1.577-0.666
		s-1.184,0.225-1.584,0.674S107.553,160.484,107.553,161.391z"/>
	<path fill="#006749" d="M114.798,165.333v-7.874h3.346c0.841,0,1.453,0.07,1.834,0.212c0.381,0.142,0.687,0.394,0.916,0.755
		s0.344,0.775,0.344,1.241c0,0.59-0.174,1.078-0.521,1.463s-0.867,0.628-1.558,0.729c0.344,0.2,0.627,0.42,0.852,0.66
		c0.224,0.24,0.525,0.666,0.905,1.278l0.961,1.536h-1.901l-1.149-1.713c-0.408-0.613-0.688-0.999-0.838-1.158
		s-0.31-0.269-0.478-0.327c-0.168-0.06-0.435-0.089-0.8-0.089h-0.322v3.287H114.798z M116.388,160.789h1.176
		c0.763,0,1.239-0.032,1.429-0.097s0.338-0.176,0.446-0.333s0.161-0.354,0.161-0.591c0-0.265-0.071-0.479-0.212-0.642
		c-0.142-0.163-0.341-0.267-0.599-0.31c-0.129-0.018-0.516-0.026-1.16-0.026h-1.241V160.789z"/>
	<path fill="#006749" d="M122.715,165.333v-7.874h2.379l1.429,5.371l1.413-5.371h2.385v7.874h-1.477v-6.198l-1.563,6.198h-1.531
		l-1.558-6.198v6.198H122.715z"/>
	<path fill="#006749" d="M139,165.333h-1.729l-0.688-1.789h-3.147l-0.65,1.789H131.1l3.067-7.874h1.681L139,165.333z
		 M136.073,162.218l-1.085-2.922l-1.063,2.922H136.073z"/>
	<path fill="#006749" d="M140.8,165.333v-6.542h-2.336v-1.332h6.257v1.332h-2.331v6.542H140.8z"/>
	<path fill="#006749" d="M145.698,165.333v-7.874h1.59v7.874H145.698z"/>
	<path fill="#006749" d="M148.48,161.444c0-0.802,0.12-1.476,0.36-2.02c0.179-0.401,0.423-0.761,0.733-1.08
		c0.31-0.318,0.649-0.555,1.018-0.709c0.491-0.207,1.056-0.311,1.697-0.311c1.16,0,2.088,0.359,2.785,1.079
		c0.696,0.72,1.044,1.721,1.044,3.003c0,1.271-0.346,2.266-1.037,2.983s-1.615,1.077-2.771,1.077c-1.171,0-2.102-0.357-2.793-1.072
		C148.826,163.682,148.48,162.697,148.48,161.444z M150.119,161.391c0,0.892,0.206,1.567,0.618,2.027s0.935,0.69,1.568,0.69
		s1.154-0.229,1.56-0.685c0.407-0.457,0.61-1.142,0.61-2.055c0-0.902-0.198-1.575-0.593-2.02c-0.396-0.444-0.921-0.666-1.577-0.666
		s-1.184,0.225-1.584,0.674S150.119,160.484,150.119,161.391z"/>
	<path fill="#006749" d="M157.375,165.333v-7.874h1.547l3.223,5.259v-5.259h1.477v7.874h-1.595l-3.174-5.135v5.135H157.375z"/>
	<path fill="#006749" d="M65.782,178.533v-7.874h2.379l1.429,5.371l1.413-5.371h2.385v7.874H71.91v-6.198l-1.563,6.198h-1.531
		l-1.558-6.198v6.198H65.782z"/>
	<path fill="#006749" d="M74.644,174.645c0-0.802,0.12-1.476,0.36-2.02c0.179-0.401,0.423-0.761,0.733-1.08
		c0.31-0.318,0.649-0.555,1.018-0.709c0.491-0.207,1.056-0.311,1.697-0.311c1.16,0,2.088,0.359,2.785,1.079
		c0.696,0.72,1.044,1.721,1.044,3.003c0,1.271-0.346,2.266-1.037,2.983s-1.615,1.077-2.771,1.077c-1.171,0-2.102-0.357-2.793-1.072
		C74.99,176.882,74.644,175.897,74.644,174.645z M76.282,174.591c0,0.892,0.206,1.567,0.618,2.027s0.935,0.69,1.568,0.69
		s1.154-0.229,1.56-0.685c0.407-0.457,0.61-1.142,0.61-2.055c0-0.902-0.198-1.575-0.593-2.02c-0.396-0.444-0.921-0.666-1.577-0.666
		s-1.184,0.225-1.584,0.674S76.282,173.685,76.282,174.591z"/>
	<path fill="#006749" d="M83.517,170.659h2.906c0.655,0,1.155,0.05,1.499,0.15c0.462,0.136,0.857,0.378,1.187,0.726
		c0.33,0.347,0.58,0.772,0.752,1.275s0.258,1.123,0.258,1.861c0,0.647-0.081,1.206-0.242,1.676
		c-0.197,0.572-0.478,1.036-0.843,1.391c-0.276,0.269-0.648,0.479-1.117,0.629c-0.351,0.11-0.82,0.166-1.407,0.166h-2.992V170.659z
		 M85.107,171.991v5.216h1.187c0.444,0,0.765-0.025,0.961-0.076c0.258-0.064,0.472-0.173,0.642-0.327
		c0.17-0.154,0.309-0.407,0.417-0.76s0.161-0.834,0.161-1.442s-0.054-1.076-0.161-1.402c-0.107-0.325-0.258-0.58-0.451-0.762
		c-0.193-0.184-0.438-0.307-0.736-0.371c-0.222-0.05-0.657-0.075-1.305-0.075H85.107z"/>
	<path fill="#006749" d="M91.466,178.533v-7.874h5.838v1.332h-4.249v1.745h3.953v1.327h-3.953v2.144h4.399v1.326H91.466z"/>
	<path fill="#006749" d="M98.846,178.533v-7.81h1.59v6.483h3.953v1.326H98.846z"/>
	<path fill="#006749" d="M105.565,178.533v-7.81h1.59v6.483h3.953v1.326H105.565z"/>
	<path fill="#006749" d="M112.193,178.533v-7.874h1.59v7.874H112.193z"/>
	<path fill="#006749" d="M115.314,178.533v-7.874h1.547l3.223,5.259v-5.259h1.477v7.874h-1.595l-3.174-5.135v5.135H115.314z"/>
	<path fill="#006749" d="M126.905,175.639v-1.327h3.427v3.137c-0.333,0.322-0.815,0.606-1.448,0.852
		c-0.632,0.245-1.272,0.368-1.92,0.368c-0.824,0-1.542-0.173-2.154-0.519s-1.072-0.84-1.38-1.482s-0.462-1.342-0.462-2.098
		c0-0.82,0.172-1.549,0.516-2.187c0.344-0.637,0.847-1.126,1.509-1.466c0.505-0.262,1.133-0.392,1.885-0.392
		c0.978,0,1.741,0.204,2.291,0.614c0.549,0.41,0.903,0.977,1.061,1.7l-1.579,0.295c-0.111-0.387-0.319-0.691-0.626-0.915
		c-0.306-0.224-0.688-0.336-1.146-0.336c-0.695,0-1.247,0.22-1.657,0.661c-0.41,0.439-0.615,1.094-0.615,1.96
		c0,0.935,0.208,1.636,0.623,2.103c0.416,0.468,0.959,0.701,1.633,0.701c0.333,0,0.667-0.065,1.001-0.196
		c0.335-0.131,0.623-0.289,0.862-0.476v-0.998H126.905z"/>
</g>
</svg>
