<?xml version="1.0" encoding="utf-8"?>
<!-- Generator: Adobe Illustrator 16.0.0, SVG Export Plug-In . SVG Version: 6.00 Build 0)  -->
<!DOCTYPE svg PUBLIC "-//W3C//DTD SVG 1.1//EN" "http://www.w3.org/Graphics/SVG/1.1/DTD/svg11.dtd">
<svg version="1.1" id="Layer_1" xmlns="http://www.w3.org/2000/svg" xmlns:xlink="http://www.w3.org/1999/xlink" x="0px" y="0px"
	 width="196px" height="196px" viewBox="0 0 196 196" enable-background="new 0 0 196 196" xml:space="preserve">
<path fill="#006749" d="M193,3v190H3V3H193 M196,0H0v196h196V0L196,0z"/>
<path fill="#006749" d="M147.95,64.374c0,0,0.583-5.603-2.225-7.006c-3.113-1.558-6.338,1.446-6.338,1.446L122.932,75.27h-0.05
	V64.374c0,0,0.584-5.603-2.225-7.006c-3.113-1.558-6.338,1.446-6.338,1.446L97.863,75.27h-0.05V64.374c0,0,0.584-5.603-2.224-7.006
	c-3.114-1.558-6.338,1.446-6.338,1.446L72.796,75.27V44.227c0-3.07-2.49-5.56-5.561-5.56H53.56c-3.07,0-5.56,2.489-5.56,5.56v88.881
	c0,3.07,2.489,5.56,5.56,5.56h88.881c3.07,0,5.56-2.489,5.56-5.56L147.95,64.374z M69.46,122.859c-3.932,0-7.117-3.186-7.117-7.115
	c0-3.932,3.186-7.117,7.117-7.117c3.93,0,7.116,3.186,7.116,7.117C76.576,119.674,73.39,122.859,69.46,122.859z M98,122.859
	c-3.931,0-7.116-3.186-7.116-7.115c0-3.932,3.186-7.117,7.116-7.117s7.116,3.186,7.116,7.117
	C105.116,119.674,101.931,122.859,98,122.859z M126.243,122.859c-3.932,0-7.117-3.186-7.117-7.115c0-3.932,3.186-7.117,7.117-7.117
	c3.93,0,7.115,3.186,7.115,7.117C133.358,119.674,130.173,122.859,126.243,122.859z"/>
<g>
	<path fill="#006749" d="M18.529,160.771v-1.327h3.427v3.137c-0.333,0.322-0.815,0.606-1.448,0.852
		c-0.632,0.245-1.272,0.368-1.92,0.368c-0.824,0-1.542-0.173-2.154-0.519s-1.072-0.84-1.38-1.482s-0.462-1.342-0.462-2.098
		c0-0.82,0.172-1.549,0.516-2.187c0.344-0.637,0.847-1.126,1.509-1.466c0.505-0.262,1.133-0.392,1.885-0.392
		c0.978,0,1.741,0.204,2.291,0.614c0.549,0.41,0.903,0.977,1.061,1.7l-1.579,0.295c-0.111-0.387-0.319-0.691-0.626-0.915
		c-0.306-0.224-0.688-0.336-1.146-0.336c-0.695,0-1.247,0.22-1.657,0.661c-0.41,0.439-0.615,1.094-0.615,1.96
		c0,0.935,0.208,1.636,0.623,2.103c0.416,0.468,0.959,0.701,1.633,0.701c0.333,0,0.667-0.065,1.001-0.196
		c0.335-0.131,0.623-0.289,0.862-0.476v-0.998H18.529z"/>
	<path fill="#006749" d="M23.422,163.665v-7.874h5.838v1.332h-4.249v1.745h3.953v1.327h-3.953v2.144h4.399v1.326H23.422z"/>
	<path fill="#006749" d="M30.437,159.776c0-0.802,0.12-1.476,0.36-2.02c0.179-0.401,0.423-0.761,0.733-1.08
		c0.31-0.318,0.649-0.555,1.018-0.709c0.491-0.207,1.056-0.311,1.697-0.311c1.16,0,2.088,0.359,2.785,1.079
		c0.696,0.72,1.044,1.721,1.044,3.003c0,1.271-0.346,2.266-1.037,2.983s-1.615,1.077-2.771,1.077c-1.171,0-2.102-0.357-2.793-1.072
		C30.782,162.014,30.437,161.029,30.437,159.776z M32.075,159.723c0,0.892,0.206,1.567,0.618,2.027s0.935,0.69,1.568,0.69
		s1.154-0.229,1.56-0.685c0.407-0.457,0.61-1.142,0.61-2.055c0-0.902-0.198-1.575-0.593-2.02c-0.396-0.444-0.921-0.666-1.577-0.666
		s-1.184,0.225-1.584,0.674S32.075,158.816,32.075,159.723z"/>
	<path fill="#006749" d="M41.087,163.665v-6.542h-2.336v-1.332h6.257v1.332h-2.331v6.542H41.087z"/>
	<path fill="#006749" d="M46.034,163.665v-7.874h5.838v1.332h-4.249v1.745h3.953v1.327h-3.953v2.144h4.399v1.326H46.034z"/>
	<path fill="#006749" d="M58.409,160.771l1.542,0.488c-0.236,0.859-0.629,1.498-1.179,1.915c-0.55,0.417-1.247,0.626-2.092,0.626
		c-1.045,0-1.905-0.357-2.578-1.072c-0.673-0.714-1.01-1.69-1.01-2.93c0-1.311,0.338-2.328,1.015-3.054
		c0.677-0.725,1.566-1.087,2.669-1.087c0.963,0,1.746,0.284,2.347,0.854c0.358,0.337,0.626,0.82,0.806,1.45l-1.574,0.376
		c-0.093-0.408-0.288-0.73-0.583-0.967c-0.296-0.236-0.655-0.354-1.077-0.354c-0.583,0-1.057,0.21-1.421,0.628
		c-0.363,0.42-0.545,1.098-0.545,2.036c0,0.995,0.179,1.704,0.537,2.127s0.824,0.634,1.396,0.634c0.422,0,0.786-0.135,1.09-0.402
		C58.058,161.769,58.277,161.347,58.409,160.771z"/>
	<path fill="#006749" d="M61.32,163.665v-7.874h1.59v3.099h3.115v-3.099h1.59v7.874h-1.59v-3.443H62.91v3.443H61.32z"/>
	<path fill="#006749" d="M69.275,163.665v-7.874h1.547l3.223,5.259v-5.259h1.477v7.874h-1.595l-3.174-5.135v5.135H69.275z"/>
	<path fill="#006749" d="M77.154,163.665v-7.874h1.59v7.874H77.154z"/>
	<path fill="#006749" d="M85.297,160.771l1.542,0.488c-0.236,0.859-0.629,1.498-1.179,1.915c-0.55,0.417-1.247,0.626-2.092,0.626
		c-1.045,0-1.905-0.357-2.578-1.072c-0.673-0.714-1.01-1.69-1.01-2.93c0-1.311,0.338-2.328,1.015-3.054
		c0.677-0.725,1.566-1.087,2.669-1.087c0.963,0,1.746,0.284,2.347,0.854c0.358,0.337,0.626,0.82,0.806,1.45l-1.574,0.376
		c-0.093-0.408-0.288-0.73-0.583-0.967c-0.296-0.236-0.655-0.354-1.077-0.354c-0.583,0-1.057,0.21-1.421,0.628
		c-0.363,0.42-0.545,1.098-0.545,2.036c0,0.995,0.179,1.704,0.537,2.127s0.824,0.634,1.396,0.634c0.422,0,0.786-0.135,1.09-0.402
		C84.946,161.769,85.165,161.347,85.297,160.771z"/>
	<path fill="#006749" d="M95.303,163.665h-1.729l-0.688-1.789h-3.147l-0.65,1.789h-1.687l3.067-7.874h1.681L95.303,163.665z
		 M92.376,160.55l-1.085-2.922l-1.063,2.922H92.376z"/>
	<path fill="#006749" d="M96.189,163.665v-7.81h1.59v6.483h3.953v1.326H96.189z"/>
	<path fill="#006749" d="M105.723,163.665v-7.874h5.838v1.332h-4.249v1.745h3.953v1.327h-3.953v2.144h4.399v1.326H105.723z"/>
	<path fill="#006749" d="M113.076,163.665v-7.874h1.547l3.223,5.259v-5.259h1.477v7.874h-1.595l-3.174-5.135v5.135H113.076z"/>
	<path fill="#006749" d="M124.667,160.771v-1.327h3.427v3.137c-0.333,0.322-0.815,0.606-1.448,0.852
		c-0.632,0.245-1.272,0.368-1.92,0.368c-0.824,0-1.542-0.173-2.154-0.519s-1.072-0.84-1.38-1.482s-0.462-1.342-0.462-2.098
		c0-0.82,0.172-1.549,0.516-2.187c0.344-0.637,0.847-1.126,1.509-1.466c0.505-0.262,1.133-0.392,1.885-0.392
		c0.978,0,1.741,0.204,2.291,0.614c0.549,0.41,0.903,0.977,1.061,1.7l-1.579,0.295c-0.111-0.387-0.319-0.691-0.626-0.915
		c-0.306-0.224-0.688-0.336-1.146-0.336c-0.695,0-1.247,0.22-1.657,0.661c-0.41,0.439-0.615,1.094-0.615,1.96
		c0,0.935,0.208,1.636,0.623,2.103c0.416,0.468,0.959,0.701,1.633,0.701c0.333,0,0.667-0.065,1.001-0.196
		c0.335-0.131,0.623-0.289,0.862-0.476v-0.998H124.667z"/>
	<path fill="#006749" d="M129.512,163.665v-7.874h1.59v7.874H129.512z"/>
	<path fill="#006749" d="M132.632,163.665v-7.874h1.547l3.223,5.259v-5.259h1.477v7.874h-1.595l-3.174-5.135v5.135H132.632z"/>
	<path fill="#006749" d="M140.56,163.665v-7.874h5.838v1.332h-4.249v1.745h3.953v1.327h-3.953v2.144h4.399v1.326H140.56z"/>
	<path fill="#006749" d="M147.897,163.665v-7.874h5.838v1.332h-4.249v1.745h3.953v1.327h-3.953v2.144h4.399v1.326H147.897z"/>
	<path fill="#006749" d="M155.239,163.665v-7.874h3.346c0.841,0,1.453,0.07,1.834,0.212c0.381,0.142,0.687,0.394,0.916,0.755
		s0.344,0.775,0.344,1.241c0,0.59-0.174,1.078-0.521,1.463s-0.867,0.628-1.558,0.729c0.344,0.2,0.627,0.42,0.852,0.66
		c0.224,0.24,0.525,0.666,0.905,1.278l0.961,1.536h-1.901l-1.149-1.713c-0.408-0.613-0.688-0.999-0.838-1.158
		s-0.31-0.269-0.478-0.327c-0.168-0.06-0.435-0.089-0.8-0.089h-0.322v3.287H155.239z M156.829,159.121h1.176
		c0.763,0,1.239-0.032,1.429-0.097s0.338-0.176,0.446-0.333s0.161-0.354,0.161-0.591c0-0.265-0.071-0.479-0.212-0.642
		c-0.142-0.163-0.341-0.267-0.599-0.31c-0.129-0.018-0.516-0.026-1.16-0.026h-1.241V159.121z"/>
	<path fill="#006749" d="M163.129,163.665v-7.874h1.59v7.874H163.129z"/>
	<path fill="#006749" d="M166.25,163.665v-7.874h1.547l3.223,5.259v-5.259h1.477v7.874h-1.595l-3.174-5.135v5.135H166.25z"/>
	<path fill="#006749" d="M177.841,160.771v-1.327h3.427v3.137c-0.333,0.322-0.815,0.606-1.448,0.852
		c-0.632,0.245-1.272,0.368-1.92,0.368c-0.824,0-1.542-0.173-2.154-0.519s-1.072-0.84-1.38-1.482s-0.462-1.342-0.462-2.098
		c0-0.82,0.172-1.549,0.516-2.187c0.344-0.637,0.847-1.126,1.509-1.466c0.505-0.262,1.133-0.392,1.885-0.392
		c0.978,0,1.741,0.204,2.291,0.614c0.549,0.41,0.903,0.977,1.061,1.7l-1.579,0.295c-0.111-0.387-0.319-0.691-0.626-0.915
		c-0.306-0.224-0.688-0.336-1.146-0.336c-0.695,0-1.247,0.22-1.657,0.661c-0.41,0.439-0.615,1.094-0.615,1.96
		c0,0.935,0.208,1.636,0.623,2.103c0.416,0.468,0.959,0.701,1.633,0.701c0.333,0,0.667-0.065,1.001-0.196
		c0.335-0.131,0.623-0.289,0.862-0.476v-0.998H177.841z"/>
</g>
</svg>
