<?xml version="1.0" encoding="utf-8"?>
<!-- Generator: Adobe Illustrator 16.0.0, SVG Export Plug-In . SVG Version: 6.00 Build 0)  -->
<!DOCTYPE svg PUBLIC "-//W3C//DTD SVG 1.1//EN" "http://www.w3.org/Graphics/SVG/1.1/DTD/svg11.dtd">
<svg version="1.1" id="Layer_1" xmlns="http://www.w3.org/2000/svg" xmlns:xlink="http://www.w3.org/1999/xlink" x="0px" y="0px"
	 width="100px" height="40px" viewBox="0 0 100 40" enable-background="new 0 0 100 40" xml:space="preserve">
<g>
	<path fill="#FFFFFF" d="M0,2.5C0,1.119,1.119,0,2.5,0h95c1.381,0,2.5,1.119,2.5,2.5v35c0,1.381-1.119,2.5-2.5,2.5h-95
		C1.119,40,0,38.881,0,37.5V2.5z"/>
	<g>
		<g>
			<path fill="#EE3124" d="M2.582,20.668C2.555,20.72,2.527,20.773,2.5,20.825c3.021-5.534,8.239-9.146,14.006-10.308
				c1.057-0.711,2.154-1.366,3.285-1.963c1.542-0.812,3.154-1.514,4.82-2.092c2.616-0.909,5.372-1.518,8.227-1.785
				C20.788,3.451,8.671,9.436,2.582,20.668"/>
			<path fill="#006848" d="M39.182,9.415c3.625,1.86,6.658,4.417,9.024,7.421c2.14-0.189,4.321-0.061,6.476,0.41
				c-2.756-3.8-6.423-7.026-10.884-9.316c-3.525-1.811-7.24-2.875-10.96-3.252c-2.854,0.268-5.61,0.876-8.227,1.785
				C29.483,6.095,34.517,7.021,39.182,9.415"/>
			<path fill="#FFFFFF" d="M39.182,9.415c-4.665-2.395-9.698-3.32-14.57-2.952c-1.666,0.58-3.278,1.28-4.82,2.092
				c4.877-0.788,10.042-0.084,14.774,2.344c3.407,1.75,6.22,4.203,8.349,7.091c1.704-0.604,3.481-0.992,5.292-1.153
				C45.84,13.832,42.807,11.275,39.182,9.415"/>
			<path fill="#231F20" d="M29.949,12.385c3.609,1.854,6.438,4.627,8.35,7.887c1.445-0.945,2.997-1.711,4.615-2.282
				c-2.129-2.888-4.941-5.341-8.349-7.091c-4.732-2.428-9.897-3.132-14.774-2.344c-1.131,0.598-2.229,1.252-3.283,1.963
				C20.912,9.631,25.639,10.172,29.949,12.385"/>
		</g>
		<g>
			<path fill="#EE3124" d="M54.598,19.331c0.027-0.052,0.055-0.105,0.084-0.156c-3.021,5.533-8.24,9.146-14.008,10.306
				c-1.057,0.714-2.153,1.366-3.285,1.963c-1.543,0.813-3.153,1.514-4.82,2.094c-2.615,0.909-5.371,1.517-8.227,1.785
				C36.392,36.549,48.51,30.563,54.598,19.331"/>
			<path fill="#006848" d="M17.997,30.584c-3.623-1.858-6.657-4.415-9.022-7.423c-2.14,0.192-4.323,0.063-6.475-0.408
				c2.756,3.8,6.421,7.027,10.882,9.316c3.527,1.811,7.239,2.875,10.96,3.253c2.855-0.269,5.611-0.876,8.227-1.785
				C27.694,33.904,22.663,32.979,17.997,30.584"/>
			<path fill="#FFFFFF" d="M17.997,30.584c4.666,2.395,9.697,3.32,14.571,2.953c1.667-0.58,3.277-1.281,4.82-2.094
				c-4.877,0.789-10.042,0.085-14.774-2.344c-3.406-1.749-6.22-4.202-8.35-7.089c-1.703,0.603-3.48,0.992-5.29,1.15
				C11.34,26.169,14.374,28.726,17.997,30.584"/>
			<path fill="#231F20" d="M27.231,27.614c-3.61-1.853-6.439-4.625-8.351-7.886c-1.445,0.945-2.996,1.708-4.616,2.282
				c2.13,2.887,4.941,5.34,8.35,7.089c4.732,2.429,9.897,3.133,14.774,2.344c1.132-0.597,2.23-1.251,3.285-1.963
				C36.268,30.369,31.541,29.826,27.231,27.614"/>
		</g>
		<polygon fill="#231F20" points="61.132,10.775 74.887,10.775 74.887,12.416 66.207,12.416 66.207,19.307 73.878,19.307 
			73.878,20.92 66.207,20.92 66.207,29.4 61.132,29.4 		"/>
		<path fill="#231F20" d="M75.923,27.787l6.283-7.521c0.809-0.935,1.489-1.717,1.867-2.499c0.38-0.731,0.556-1.464,0.556-2.17
			c0-2.677-2.094-3.281-4.644-3.281c-1.211,0-2.422,0.151-3.382,0.277v-1.489c1.615-0.303,3.482-0.506,5.124-0.506
			c6.08,0,8.252,1.844,8.252,5.301c0,1.212-0.403,2.322-1.01,3.408c-0.681,1.16-1.641,2.296-2.625,3.456l-4.238,5.024h8.405V29.4
			H75.923V27.787z"/>
		<path fill="#231F20" d="M92.604,11.457H97.5v3.785h-4.896V11.457z M92.604,16.959H97.5V29.4h-4.896V16.959z"/>
	</g>
</g>
</svg>
