<?xml version="1.0" encoding="utf-8"?>
<!-- Generator: Adobe Illustrator 16.0.0, SVG Export Plug-In . SVG Version: 6.00 Build 0)  -->
<!DOCTYPE svg PUBLIC "-//W3C//DTD SVG 1.1//EN" "http://www.w3.org/Graphics/SVG/1.1/DTD/svg11.dtd">
<svg version="1.1" id="Layer_1" xmlns="http://www.w3.org/2000/svg" xmlns:xlink="http://www.w3.org/1999/xlink" x="0px" y="0px"
	 width="100px" height="100px" viewBox="0 0 100 100" enable-background="new 0 0 100 100" xml:space="preserve">
<circle fill="#FFFFFF" cx="50" cy="50" r="50"/>
<g>
	<path fill="#EE3124" d="M4.437,50.643c-0.027,0.049-0.053,0.1-0.081,0.15c2.902-5.318,7.918-8.789,13.459-9.904
		c1.015-0.684,2.068-1.313,3.157-1.886c1.481-0.78,3.03-1.454,4.631-2.011c2.514-0.874,5.162-1.458,7.905-1.715
		C21.931,34.099,10.287,39.849,4.437,50.643"/>
	<path fill="#006848" d="M39.604,39.829c3.483,1.789,6.399,4.244,8.671,7.132c2.057-0.183,4.153-0.059,6.223,0.393
		c-2.647-3.651-6.171-6.752-10.457-8.952c-3.389-1.74-6.958-2.763-10.532-3.125c-2.744,0.258-5.392,0.842-7.905,1.715
		C30.287,36.638,35.121,37.528,39.604,39.829"/>
	<path fill="#FFFFFF" d="M39.604,39.829c-4.483-2.301-9.318-3.191-14-2.837c-1.602,0.558-3.15,1.231-4.631,2.011
		c4.687-0.757,9.648-0.081,14.196,2.252c3.274,1.681,5.976,4.039,8.022,6.813c1.638-0.581,3.346-0.954,5.084-1.107
		C46.003,44.073,43.087,41.617,39.604,39.829"/>
	<path fill="#231F20" d="M30.733,42.683c3.469,1.78,6.188,4.446,8.023,7.578c1.39-0.908,2.88-1.644,4.435-2.193
		c-2.047-2.775-4.748-5.132-8.022-6.813c-4.548-2.333-9.51-3.01-14.196-2.252c-1.088,0.574-2.142,1.203-3.156,1.886
		C22.05,40.036,26.592,40.557,30.733,42.683"/>
	<path fill="#EE3124" d="M54.417,49.357c0.028-0.049,0.054-0.102,0.081-0.15c-2.902,5.317-7.917,8.789-13.46,9.902
		c-1.015,0.687-2.068,1.313-3.157,1.887c-1.482,0.78-3.029,1.454-4.631,2.012c-2.514,0.873-5.162,1.459-7.904,1.716
		C36.924,65.901,48.568,60.149,54.417,49.357"/>
	<path fill="#006848" d="M19.249,60.17c-3.482-1.785-6.397-4.243-8.669-7.132c-2.057,0.184-4.154,0.061-6.223-0.393
		c2.648,3.651,6.17,6.753,10.458,8.952c3.389,1.739,6.957,2.762,10.532,3.126c2.743-0.257,5.391-0.843,7.904-1.716
		C28.567,63.361,23.733,62.471,19.249,60.17"/>
	<path fill="#FFFFFF" d="M19.249,60.17c4.484,2.301,9.319,3.191,14.001,2.838c1.602-0.558,3.149-1.231,4.631-2.012
		c-4.687,0.759-9.647,0.082-14.196-2.253c-3.274-1.681-5.976-4.037-8.022-6.811c-1.637,0.578-3.346,0.953-5.084,1.105
		C12.852,55.927,15.767,58.385,19.249,60.17"/>
	<path fill="#231F20" d="M28.122,57.316c-3.469-1.78-6.188-4.445-8.024-7.578c-1.389,0.909-2.88,1.642-4.435,2.194
		c2.046,2.773,4.747,5.13,8.022,6.811c4.549,2.335,9.511,3.012,14.196,2.253c1.088-0.573,2.143-1.202,3.157-1.887
		C36.804,59.965,32.262,59.442,28.122,57.316"/>
	<polygon fill="#231F20" points="60.697,41.135 73.914,41.135 73.914,42.712 65.572,42.712 65.572,49.333 72.944,49.333 
		72.944,50.885 65.572,50.885 65.572,59.033 60.697,59.033 	"/>
	<path fill="#231F20" d="M74.909,57.482l6.039-7.228c0.775-0.897,1.43-1.649,1.794-2.401c0.363-0.703,0.533-1.407,0.533-2.085
		c0-2.571-2.012-3.153-4.462-3.153c-1.164,0-2.328,0.145-3.25,0.267v-1.432c1.553-0.291,3.347-0.485,4.924-0.485
		c5.843,0,7.93,1.771,7.93,5.092c0,1.165-0.389,2.231-0.97,3.274c-0.655,1.117-1.578,2.208-2.522,3.323l-4.074,4.827h8.076v1.551
		H74.909V57.482z"/>
	<path fill="#231F20" d="M90.939,41.791h4.704v3.637h-4.704V41.791z M90.939,47.077h4.704v11.956h-4.704V47.077z"/>
</g>
</svg>
