<?xml version="1.0" encoding="utf-8"?>
<!-- Generator: Adobe Illustrator 16.0.0, SVG Export Plug-In . SVG Version: 6.00 Build 0)  -->
<!DOCTYPE svg PUBLIC "-//W3C//DTD SVG 1.1//EN" "http://www.w3.org/Graphics/SVG/1.1/DTD/svg11.dtd">
<svg version="1.1" id="Layer_1" xmlns="http://www.w3.org/2000/svg" xmlns:xlink="http://www.w3.org/1999/xlink" x="0px" y="0px"
	 width="100px" height="100px" viewBox="0 0 100 100" enable-background="new 0 0 100 100" xml:space="preserve">
<g>
	<path fill="#FFFFFF" d="M30.063,33.43l-0.078,0C7.72,33.43,0.112,50.503,0.038,50.676c-0.096,0.223-0.005,0.481,0.21,0.594
		c0.069,0.037,0.143,0.054,0.216,0.054c0.154,0,0.305-0.078,0.393-0.218c4.545-7.264,10.799-10.929,18.608-10.929
		c11.683,0,17.784,10.235,17.845,10.339c0.064,0.11,0.172,0.189,0.296,0.218c0.034,0.008,0.069,0.012,0.104,0.012
		c0.091,0,0.181-0.026,0.257-0.077c4.374-2.905,9.056-3.515,12.213-3.514c2.649,0,4.448,0.427,4.467,0.431
		c0.036,0.009,0.072,0.013,0.108,0.013c0.154,0,0.301-0.077,0.388-0.209c0.107-0.165,0.101-0.378-0.019-0.535
		C45.225,33.807,31.586,33.43,30.063,33.43L30.063,33.43z"/>
	<path fill="#FFFFFF" d="M25.155,66.57l0.077-0.001c22.267,0,29.874-17.073,29.948-17.245c0.096-0.223,0.004-0.481-0.21-0.594
		c-0.069-0.037-0.143-0.055-0.216-0.055c-0.155,0-0.306,0.078-0.394,0.219c-4.544,7.262-10.798,10.928-18.607,10.928
		c-11.684,0-17.784-10.236-17.846-10.339c-0.063-0.111-0.171-0.189-0.295-0.217c-0.034-0.009-0.069-0.013-0.104-0.013
		c-0.091,0-0.181,0.027-0.257,0.078c-4.374,2.904-9.056,3.514-12.213,3.514c-2.65,0-4.448-0.428-4.467-0.432
		c-0.036-0.009-0.072-0.013-0.108-0.013c-0.154,0-0.301,0.076-0.388,0.209c-0.107,0.165-0.101,0.378,0.018,0.534
		C9.994,66.193,23.633,66.57,25.155,66.57L25.155,66.57z"/>
	<g>
		<path fill="#EE3124" d="M0.551,50.695c-0.029,0.054-0.058,0.109-0.087,0.164c3.143-5.758,8.573-9.516,14.573-10.724
			c1.099-0.741,2.239-1.422,3.418-2.042c1.604-0.845,3.28-1.575,5.015-2.178c2.722-0.945,5.589-1.578,8.56-1.857
			C19.492,32.783,6.885,39.009,0.551,50.695"/>
		<path fill="#006848" d="M38.629,38.987c3.771,1.936,6.928,4.595,9.388,7.721c2.227-0.197,4.497-0.063,6.738,0.426
			c-2.867-3.954-6.683-7.311-11.323-9.693c-3.669-1.883-7.533-2.991-11.402-3.384c-2.971,0.279-5.838,0.912-8.56,1.857
			C28.539,35.532,33.774,36.496,38.629,38.987"/>
		<path fill="#FFFFFF" d="M38.629,38.987c-4.854-2.492-10.09-3.455-15.159-3.072c-1.734,0.604-3.411,1.333-5.015,2.178
			c5.074-0.82,10.446-0.088,15.371,2.438c3.545,1.82,6.47,4.373,8.686,7.376c1.773-0.628,3.623-1.032,5.505-1.199
			C45.557,43.583,42.399,40.923,38.629,38.987"/>
		<path fill="#231F20" d="M29.023,42.077c3.756,1.928,6.699,4.814,8.687,8.206c1.505-0.983,3.118-1.779,4.802-2.375
			c-2.216-3.004-5.141-5.556-8.686-7.376c-4.925-2.526-10.297-3.259-15.371-2.438c-1.179,0.621-2.319,1.301-3.417,2.042
			C19.621,39.211,24.539,39.775,29.023,42.077"/>
	</g>
	<g>
		<path fill="#EE3124" d="M54.667,49.304c0.03-0.054,0.058-0.109,0.088-0.163c-3.143,5.757-8.573,9.516-14.574,10.722
			c-1.099,0.743-2.239,1.422-3.418,2.043c-1.604,0.845-3.28,1.574-5.015,2.178c-2.722,0.945-5.589,1.579-8.559,1.857
			C35.726,67.218,48.334,60.989,54.667,49.304"/>
		<path fill="#006848" d="M16.588,61.012c-3.771-1.934-6.926-4.594-9.387-7.723c-2.228,0.199-4.498,0.065-6.737-0.425
			c2.867,3.953,6.68,7.312,11.322,9.692c3.67,1.884,7.532,2.991,11.403,3.385c2.97-0.278,5.837-0.912,8.559-1.857
			C26.678,64.467,21.443,63.503,16.588,61.012"/>
		<path fill="#FFFFFF" d="M16.588,61.012c4.855,2.491,10.09,3.455,15.16,3.072c1.734-0.604,3.41-1.333,5.015-2.178
			c-5.074,0.821-10.446,0.089-15.371-2.439c-3.545-1.819-6.47-4.371-8.687-7.375c-1.771,0.627-3.622,1.033-5.504,1.197
			C9.662,56.418,12.817,59.078,16.588,61.012"/>
		<path fill="#231F20" d="M26.195,57.922c-3.757-1.928-6.7-4.813-8.688-8.205c-1.505,0.984-3.118,1.778-4.803,2.375
			c2.217,3.004,5.141,5.556,8.687,7.375c4.925,2.528,10.298,3.261,15.371,2.439c1.179-0.621,2.32-1.302,3.418-2.043
			C35.597,60.789,30.679,60.224,26.195,57.922"/>
	</g>
	<path fill="#FFFFFF" d="M76.473,39.707h-0.695H61.467h-0.695v0.696V59.78v0.695h0.695h5.278h0.695V59.78v-8.126h7.287h0.695v-0.696
		v-1.68v-0.696h-0.695H67.44v-5.777h8.337h0.695v-0.696v-1.707V39.707L76.473,39.707z"/>
	<path fill="#FFFFFF" d="M82.894,39.523c-1.646,0-3.636,0.196-5.459,0.538l-0.567,0.106v0.578v1.549v0.794l0.787-0.104
		c1.033-0.137,2.235-0.283,3.428-0.283c2.938,0,4.136,0.788,4.136,2.718c0,0.645-0.169,1.297-0.5,1.938
		c-0.356,0.736-1.033,1.518-1.816,2.424l-0.035,0.04l-6.545,7.834l-0.162,0.193v0.253v1.679v0.695h0.695h15.178h0.695V59.78v-1.679
		v-0.696h-0.695h-7.247l3.445-4.082c1.01-1.191,2.055-2.425,2.799-3.694c0.784-1.406,1.146-2.64,1.146-3.896
		C92.175,41.496,89.227,39.523,82.894,39.523L82.894,39.523z"/>
	<path fill="#FFFFFF" d="M100,40.416h-0.695h-5.094h-0.695v0.695v3.939v0.695h0.695h5.094H100V45.05v-3.939V40.416L100,40.416z
		 M100,46.14h-0.695h-5.094h-0.695v0.695V59.78v0.695h0.695h5.094H100V59.78V46.835V46.14L100,46.14z"/>
	<polygon fill="#231F20" points="61.467,40.402 75.777,40.402 75.777,42.109 66.745,42.109 66.745,49.278 74.728,49.278 
		74.728,50.958 66.745,50.958 66.745,59.78 61.467,59.78 	"/>
	<path fill="#231F20" d="M76.854,58.102l6.538-7.826c0.841-0.972,1.549-1.787,1.943-2.6c0.394-0.761,0.577-1.523,0.577-2.258
		c0-2.784-2.179-3.414-4.831-3.414c-1.26,0-2.521,0.157-3.519,0.289v-1.549c1.681-0.315,3.623-0.526,5.33-0.526
		c6.327,0,8.586,1.918,8.586,5.515c0,1.26-0.42,2.415-1.05,3.545c-0.709,1.208-1.708,2.39-2.731,3.597l-4.41,5.227h8.744v1.679
		H76.854V58.102z"/>
	<path fill="#231F20" d="M94.211,41.111h5.094v3.939h-5.094V41.111z M94.211,46.835h5.094V59.78h-5.094V46.835z"/>
</g>
</svg>
