<?xml version="1.0" encoding="utf-8"?>
<!-- Generator: Adobe Illustrator 16.0.0, SVG Export Plug-In . SVG Version: 6.00 Build 0)  -->
<!DOCTYPE svg PUBLIC "-//W3C//DTD SVG 1.1//EN" "http://www.w3.org/Graphics/SVG/1.1/DTD/svg11.dtd">
<svg version="1.1" id="Layer_1" xmlns="http://www.w3.org/2000/svg" xmlns:xlink="http://www.w3.org/1999/xlink" x="0px" y="0px"
	 width="100px" height="32.59px" viewBox="0 0 100 32.59" enable-background="new 0 0 100 32.59" xml:space="preserve">
<g>
	<g>
		<path fill="#EE3124" d="M0.086,16.998C0.058,17.053,0.028,17.108,0,17.163c3.18-5.825,8.673-9.627,14.742-10.85
			c1.113-0.749,2.269-1.438,3.459-2.066c1.622-0.854,3.32-1.594,5.073-2.202c2.754-0.957,5.655-1.597,8.661-1.879
			C19.251-1.125,6.495,5.174,0.086,16.998"/>
		<path fill="#006848" d="M38.612,5.152c3.815,1.959,7.009,4.65,9.499,7.812c2.253-0.199,4.55-0.063,6.816,0.432
			c-2.901-4-6.761-7.396-11.456-9.807c-3.711-1.906-7.621-3.026-11.536-3.423c-3.006,0.282-5.907,0.922-8.661,1.879
			C28.403,1.657,33.702,2.632,38.612,5.152"/>
		<path fill="#FFFFFF" d="M38.612,5.152c-4.91-2.521-10.209-3.495-15.338-3.107c-1.753,0.61-3.451,1.348-5.073,2.202
			c5.133-0.83,10.57-0.088,15.552,2.467c3.587,1.843,6.547,4.425,8.788,7.464c1.794-0.635,3.665-1.044,5.57-1.214
			C45.621,9.803,42.428,7.111,38.612,5.152"/>
		<path fill="#231F20" d="M28.894,8.278c3.799,1.951,6.778,4.871,8.789,8.302c1.521-0.994,3.155-1.801,4.858-2.402
			c-2.241-3.039-5.201-5.621-8.788-7.464c-4.981-2.555-10.419-3.297-15.552-2.467c-1.19,0.629-2.346,1.317-3.457,2.066
			C19.381,5.38,24.356,5.949,28.894,8.278"/>
	</g>
	<g>
		<path fill="#EE3124" d="M54.84,15.591c0.028-0.055,0.058-0.111,0.088-0.165c-3.179,5.824-8.674,9.629-14.744,10.849
			c-1.113,0.752-2.268,1.438-3.459,2.066c-1.624,0.854-3.319,1.593-5.074,2.204c-2.752,0.957-5.653,1.596-8.659,1.879
			C35.676,33.715,48.432,27.413,54.84,15.591"/>
		<path fill="#006848" d="M16.313,27.436c-3.814-1.956-7.008-4.647-9.498-7.813C4.563,19.825,2.265,19.688,0,19.193
			c2.901,3.999,6.759,7.396,11.455,9.806c3.713,1.906,7.62,3.027,11.536,3.425c3.006-0.283,5.907-0.922,8.659-1.879
			C26.521,30.931,21.225,29.957,16.313,27.436"/>
		<path fill="#FFFFFF" d="M16.313,27.436c4.911,2.521,10.207,3.495,15.337,3.109c1.755-0.611,3.45-1.35,5.074-2.204
			c-5.133,0.83-10.57,0.089-15.552-2.468c-3.586-1.84-6.547-4.423-8.789-7.461c-1.793,0.634-3.663,1.044-5.568,1.21
			C9.306,22.788,12.499,25.479,16.313,27.436"/>
		<path fill="#231F20" d="M26.033,24.31c-3.801-1.949-6.778-4.868-8.79-8.301c-1.522,0.995-3.154,1.799-4.859,2.403
			c2.242,3.038,5.201,5.621,8.789,7.461c4.981,2.557,10.419,3.298,15.552,2.468c1.191-0.629,2.348-1.317,3.459-2.066
			C35.545,27.21,30.57,26.639,26.033,24.31"/>
	</g>
	<polygon fill="#231F20" points="61.718,6.585 76.196,6.585 76.196,8.312 67.06,8.312 67.06,15.565 75.135,15.565 75.135,17.263 
		67.06,17.263 67.06,26.19 61.718,26.19 	"/>
	<path fill="#231F20" d="M77.287,24.492l6.614-7.918c0.851-0.983,1.567-1.808,1.966-2.631c0.399-0.77,0.585-1.541,0.585-2.283
		c0-2.818-2.205-3.454-4.889-3.454c-1.274,0-2.549,0.159-3.561,0.291V6.93c1.701-0.318,3.666-0.532,5.395-0.532
		c6.4,0,8.686,1.941,8.686,5.58c0,1.275-0.424,2.444-1.063,3.588c-0.717,1.221-1.727,2.417-2.763,3.638l-4.462,5.289h8.848v1.698
		H77.287V24.492z"/>
	<path fill="#231F20" d="M94.848,7.302H100v3.984h-5.152V7.302z M94.848,13.094H100V26.19h-5.152V13.094z"/>
</g>
</svg>
